<?xml version="1.0" encoding="UTF-8" standalone="no"?>
<!DOCTYPE svg PUBLIC "-//W3C//DTD SVG 1.1//EN" "http://www.w3.org/Graphics/SVG/1.1/DTD/svg11.dtd">
<svg width="100%" height="100%" viewBox="0 0 240 100" version="1.1" xmlns="http://www.w3.org/2000/svg" xmlns:xlink="http://www.w3.org/1999/xlink" xml:space="preserve" xmlns:serif="http://www.serif.com/" style="fill-rule:evenodd;clip-rule:evenodd;stroke-linejoin:round;stroke-miterlimit:2;">
    <g transform="matrix(0.232397,0,0,0.232397,-165.819254,-203.738016)">
        <g transform="matrix(248.957167,0,0,248.957167,845.530852,1154.063849)">
            <path d="M0.084,-0.59L0.084,-0.11C0.084,-0.075 0.077,-0.016 0.049,-0.002L0.31,0C0.513,0 0.656,-0.148 0.656,-0.349C0.656,-0.552 0.513,-0.7 0.31,-0.7L0.049,-0.7L0.049,-0.698C0.077,-0.684 0.084,-0.625 0.084,-0.59ZM0.214,-0.005L0.214,-0.695L0.31,-0.695C0.428,-0.695 0.516,-0.544 0.516,-0.349C0.516,-0.156 0.428,-0.005 0.31,-0.005L0.214,-0.005Z" style="fill-rule:nonzero;"/>
        </g>
        <g transform="matrix(248.957167,0,0,248.957167,1281.952767,1154.063849)">
            <path d="M0.078,-0.39L0.078,-0.11C0.078,-0.075 0.071,-0.016 0.043,-0.002L0.043,0L0.233,0L0.233,-0.002C0.205,-0.016 0.198,-0.075 0.198,-0.11L0.2,-0.516C0.16,-0.501 0.138,-0.466 0.138,-0.466L0.05,-0.507C0.078,-0.492 0.078,-0.425 0.078,-0.39Z"/>
        </g>
        <g transform="matrix(248.957167,0,0,248.957167,1350.415988,1154.063849)">
            <path d="M0.262,0C0.398,0 0.488,0.005 0.488,0.061C0.488,0.125 0.377,0.191 0.25,0.191C0.17,0.191 0.203,0.059 0.249,-0.035C0.19,-0.035 0.025,0.049 0.025,0.097C0.025,0.162 0.134,0.2 0.228,0.2C0.365,0.2 0.537,0.133 0.537,0.001C0.537,-0.088 0.428,-0.118 0.312,-0.118C0.264,-0.118 0.087,-0.11 0.087,-0.144C0.087,-0.166 0.126,-0.186 0.165,-0.2C0.198,-0.185 0.241,-0.176 0.291,-0.176C0.438,-0.176 0.519,-0.252 0.519,-0.346C0.519,-0.416 0.474,-0.476 0.39,-0.502C0.391,-0.546 0.396,-0.595 0.434,-0.595C0.448,-0.595 0.463,-0.574 0.442,-0.546C0.484,-0.546 0.51,-0.562 0.51,-0.587C0.51,-0.611 0.486,-0.626 0.458,-0.626C0.398,-0.626 0.387,-0.563 0.385,-0.504C0.357,-0.512 0.326,-0.516 0.291,-0.516C0.144,-0.516 0.063,-0.44 0.063,-0.346C0.063,-0.285 0.097,-0.232 0.16,-0.202C0.116,-0.188 0.045,-0.158 0.045,-0.092C0.045,-0.003 0.136,0 0.262,0ZM0.291,-0.181C0.217,-0.181 0.193,-0.256 0.193,-0.346C0.193,-0.436 0.217,-0.511 0.291,-0.511C0.365,-0.511 0.389,-0.436 0.389,-0.346C0.389,-0.256 0.365,-0.181 0.291,-0.181Z" style="fill-rule:nonzero;"/>
        </g>
        <g transform="matrix(248.957167,0,0,248.957167,1493.566359,1154.063849)">
            <path d="M0.043,-0.498C0.071,-0.484 0.078,-0.425 0.078,-0.39L0.078,-0.11C0.078,-0.075 0.071,-0.016 0.043,-0.002L0.043,0L0.233,0L0.233,-0.002C0.205,-0.016 0.198,-0.075 0.198,-0.11L0.198,-0.393C0.215,-0.464 0.264,-0.503 0.311,-0.503C0.389,-0.503 0.364,-0.052 0.317,-0.002C0.34,-0.003 0.353,-0.029 0.317,-0.002L0.317,0L0.507,0L0.507,-0.002C0.479,-0.016 0.472,-0.075 0.472,-0.11L0.472,-0.351C0.472,-0.452 0.413,-0.516 0.335,-0.516C0.271,-0.516 0.221,-0.478 0.198,-0.41L0.198,-0.516C0.156,-0.505 0.123,-0.5 0.081,-0.5L0.043,-0.5L0.043,-0.498L0.043,-0.498Z" style="fill-rule:nonzero;"/>
        </g>
        <path d="M1030.506,1091.825L1030.502,1091.825C1030.502,1055.228 1053.161,1025.606 1089.754,1025.606C1126.6,1025.606 1146.769,1055.228 1146.769,1091.825L1062.87,1091.825C1062.87,1126.928 1078.302,1148.836 1101.704,1148.836C1116.89,1148.836 1131.579,1141.865 1142.284,1126.928L1143.28,1127.674C1133.072,1143.11 1113.405,1158.047 1092.244,1158.047C1055.647,1158.047 1030.506,1128.421 1030.506,1091.825ZM1089.754,1026.851C1071.58,1026.851 1063.119,1055.481 1062.87,1090.584L1114.152,1090.584C1114.152,1055.979 1107.932,1026.851 1089.754,1026.851Z"/>
        <g transform="matrix(0.679013,0,0,0.383333,583.392889,567.329272)">
            <g opacity="0.99">
                <path d="M1538.548,1532.699C1541.788,1532.699 1544.438,1528.004 1544.438,1522.004C1544.438,1516.269 1541.788,1511.569 1538.548,1511.569C1535.16,1511.569 1532.512,1516.265 1532.512,1522.004C1532.512,1528.004 1535.16,1532.699 1538.548,1532.699Z" style="fill-rule:nonzero;"/>
                <path d="M1556.223,1508.439C1556.223,1524.612 1570.066,1534.786 1585.235,1534.786C1603.939,1534.786 1617.046,1518.877 1617.046,1495.656C1617.046,1452.877 1577.724,1447.917 1577.724,1417.921C1577.724,1405.134 1580.67,1397.308 1587.886,1397.308C1599.963,1397.308 1604.233,1422.352 1598.343,1440.352C1609.535,1440.352 1615.868,1433.83 1615.868,1422.352C1615.868,1406.182 1603.055,1396.008 1587.886,1396.008C1571.833,1396.008 1560.493,1409.569 1560.493,1429.399C1560.493,1470.352 1601.288,1475.047 1601.288,1506.877C1601.288,1522.265 1595.986,1533.482 1585.235,1533.482C1573.159,1533.482 1566.237,1510.525 1573.895,1490.182C1562.85,1490.182 1556.22,1496.96 1556.22,1508.439L1556.223,1508.439Z" style="fill-rule:nonzero;"/>
                <path d="M1635.6,1376.703L1635.6,1501.921C1635.6,1511.047 1634.569,1526.439 1630.446,1530.095L1630.446,1530.617L1658.427,1530.617L1658.427,1530.095C1654.304,1526.443 1653.273,1511.047 1653.273,1501.921L1653.273,1485.225L1653.567,1484.443L1660.342,1497.747C1665.646,1508.178 1675.808,1524.095 1670.506,1529.834L1670.506,1530.617L1705.115,1530.617L1705.115,1530.095C1700.992,1526.439 1692.597,1516.004 1689.062,1509.482L1664.173,1460.699L1681.107,1422.612C1684.35,1415.573 1692.008,1404.356 1695.835,1400.699L1695.835,1400.178L1683.466,1400.178L1683.466,1400.96C1688.766,1406.703 1679.487,1423.917 1674.48,1435.134L1653.273,1482.873L1653.273,1343.834C1647.09,1346.703 1642.23,1348.008 1636.044,1348.008L1630.446,1348.008L1630.446,1348.525C1634.569,1352.182 1635.6,1367.573 1635.6,1376.703Z" style="fill-rule:nonzero;"/>
            </g>
        </g>
        <path d="M1166.935,1132.902L1166.931,1132.902C1166.931,1121.948 1178.138,1115.479 1196.809,1115.479C1183.864,1134.894 1195.565,1156.802 1215.979,1156.802C1234.153,1156.802 1243.115,1146.097 1243.115,1131.413C1243.115,1101.036 1174.154,1096.555 1174.154,1057.472C1174.154,1038.548 1193.324,1025.606 1220.46,1025.606C1246.103,1025.606 1267.762,1035.315 1267.762,1050.747C1267.762,1061.701 1257.057,1067.925 1238.136,1067.925C1248.095,1050.747 1240.875,1026.847 1220.46,1026.847C1208.261,1026.847 1203.282,1034.315 1203.282,1046.518C1203.282,1075.144 1269.754,1079.879 1269.754,1120.704C1269.754,1142.865 1247.597,1158.047 1215.979,1158.047C1190.337,1158.047 1166.935,1148.338 1166.935,1132.902Z"/>
        <path d="M718.563,1091.825L718.559,1091.825C718.559,1055.228 741.218,1025.606 777.811,1025.606C814.656,1025.606 834.826,1055.228 834.826,1091.825L750.927,1091.825C750.927,1126.928 766.359,1148.836 789.761,1148.836C804.947,1148.836 819.635,1141.865 830.341,1126.928L831.336,1127.674C821.129,1143.11 801.462,1158.047 780.3,1158.047C743.703,1158.047 718.563,1128.421 718.563,1091.825ZM777.811,1026.851C759.637,1026.851 751.176,1055.481 750.927,1090.584L802.208,1090.584C802.208,1055.979 795.988,1026.851 777.811,1026.851Z"/>
        <g transform="matrix(-1.380801,0.014664,0.017563,1.653808,3110.53072,-700.944041)">
            <path d="M1314.51,1023.313C1315.18,1021.817 1316.012,1020.684 1316.928,1019.85C1319.793,1017.24 1323.477,1017.563 1325.572,1018.898C1328.338,1020.659 1328.338,1024.181 1325.572,1027.704C1324.591,1029.043 1322.827,1030.383 1320.785,1031.608C1318.801,1032.798 1316.555,1033.88 1314.51,1034.748C1311.603,1031.932 1306.232,1029.625 1303.448,1027.704C1302.007,1026.709 1301.27,1025.414 1301.072,1024.102C1300.765,1022.058 1301.764,1019.97 1303.448,1018.898C1306.214,1017.137 1311.745,1017.137 1314.51,1023.313Z"/>
        </g>
    </g>
</svg>
