<svg xmlns="http://www.w3.org/2000/svg" xmlns:xlink="http://www.w3.org/1999/xlink" width="240" zoomAndPan="magnify" viewBox="0 0 180 74.999997" height="100" preserveAspectRatio="xMidYMid meet" version="1.0"><defs><g/><clipPath id="f2414dabb6"><path d="M 0.679688 18 L 136 18 L 136 54 L 0.679688 54 Z M 0.679688 18 " clip-rule="nonzero"/></clipPath><clipPath id="5680e30ea9"><rect x="0" width="136" y="0" height="36"/></clipPath><clipPath id="56a92d94a7"><rect x="0" width="179" y="0" height="66"/></clipPath></defs><g transform="matrix(1, 0, 0, 1, 1, 3)"><g clip-path="url(#56a92d94a7)"><g clip-path="url(#f2414dabb6)"><g transform="matrix(1, 0, 0, 1, -0.000000000000000222, 18)"><g clip-path="url(#5680e30ea9)"><g fill="#eae0c8" fill-opacity="1"><g transform="translate(0.777733, 28.212357)"><g><path d="M 15.015625 -16.9375 C 14.816406 -17.820312 14.59375 -18.5 14.34375 -18.96875 C 14.101562 -19.4375 13.757812 -19.753906 13.3125 -19.921875 C 12.875 -20.085938 12.265625 -20.171875 11.484375 -20.171875 L 5.015625 -20.171875 L 5.015625 -10.671875 L 9.84375 -10.671875 C 10.882812 -10.671875 11.582031 -10.84375 11.9375 -11.1875 C 12.300781 -11.53125 12.484375 -12.140625 12.484375 -13.015625 L 12.78125 -13.015625 L 12.78125 -7.96875 L 12.484375 -7.96875 C 12.484375 -8.851562 12.300781 -9.460938 11.9375 -9.796875 C 11.582031 -10.140625 10.882812 -10.3125 9.84375 -10.3125 L 5.015625 -10.3125 L 5.015625 -0.359375 L 11.78125 -0.359375 C 12.5625 -0.359375 13.171875 -0.492188 13.609375 -0.765625 C 14.054688 -1.035156 14.398438 -1.445312 14.640625 -2 C 14.890625 -2.5625 15.109375 -3.28125 15.296875 -4.15625 L 15.59375 -4.15625 L 15.015625 0 L 0.59375 0 L 0.59375 -0.296875 C 1.46875 -0.296875 2.078125 -0.476562 2.421875 -0.84375 C 2.765625 -1.21875 2.9375 -1.914062 2.9375 -2.9375 L 2.9375 -17.59375 C 2.9375 -18.625 2.765625 -19.316406 2.421875 -19.671875 C 2.078125 -20.035156 1.46875 -20.21875 0.59375 -20.21875 L 0.59375 -20.515625 L 14.71875 -20.515625 L 15.296875 -16.9375 Z M 15.015625 -16.9375 "/></g></g></g><g fill="#eae0c8" fill-opacity="1"><g transform="translate(17.544979, 28.212357)"><g><path d="M 10.5 0 C 9.144531 0.0390625 7.835938 -0.242188 6.578125 -0.859375 C 5.316406 -1.472656 4.191406 -2.351562 3.203125 -3.5 C 2.222656 -4.644531 1.441406 -6.007812 0.859375 -7.59375 C 0.285156 -9.175781 0 -10.925781 0 -12.84375 C 0 -14.789062 0.359375 -16.601562 1.078125 -18.28125 C 1.804688 -19.96875 2.835938 -21.445312 4.171875 -22.71875 C 5.515625 -23.988281 7.125 -24.976562 9 -25.6875 C 10.875 -26.40625 12.957031 -26.765625 15.25 -26.765625 C 16.925781 -26.765625 18.570312 -26.5 20.1875 -25.96875 C 21.8125 -25.4375 23.285156 -24.613281 24.609375 -23.5 C 25.929688 -22.394531 26.984375 -20.976562 27.765625 -19.25 C 28.554688 -17.53125 28.953125 -15.484375 28.953125 -13.109375 C 28.953125 -10.929688 28.679688 -9.023438 28.140625 -7.390625 C 27.609375 -5.765625 26.875 -4.398438 25.9375 -3.296875 C 25 -2.191406 23.914062 -1.363281 22.6875 -0.8125 C 21.457031 -0.269531 20.148438 0 18.765625 0 Z M 15.25 -26.40625 C 13.3125 -26.40625 11.507812 -26.09375 9.84375 -25.46875 C 8.1875 -24.84375 6.742188 -23.929688 5.515625 -22.734375 C 4.285156 -21.546875 3.328125 -20.117188 2.640625 -18.453125 C 1.953125 -16.796875 1.609375 -14.925781 1.609375 -12.84375 C 1.609375 -10.789062 1.863281 -8.984375 2.375 -7.421875 C 2.882812 -5.859375 3.5625 -4.546875 4.40625 -3.484375 C 5.257812 -2.429688 6.210938 -1.632812 7.265625 -1.09375 C 8.328125 -0.5625 9.40625 -0.296875 10.5 -0.296875 C 11.375 -0.296875 11.984375 -0.476562 12.328125 -0.84375 C 12.671875 -1.21875 12.84375 -1.914062 12.84375 -2.9375 L 12.84375 -17.59375 C 12.84375 -18.625 12.671875 -19.316406 12.328125 -19.671875 C 11.984375 -20.035156 11.375 -20.21875 10.5 -20.21875 L 10.5 -20.515625 L 17.234375 -20.515625 L 17.234375 -20.21875 C 16.359375 -20.21875 15.75 -20.035156 15.40625 -19.671875 C 15.0625 -19.316406 14.890625 -18.625 14.890625 -17.59375 L 14.890625 -2.9375 C 14.890625 -2.09375 15.003906 -1.472656 15.234375 -1.078125 C 15.472656 -0.691406 15.867188 -0.453125 16.421875 -0.359375 L 18.765625 -0.359375 C 20.046875 -0.359375 21.175781 -0.695312 22.15625 -1.375 C 23.132812 -2.0625 23.957031 -2.992188 24.625 -4.171875 C 25.289062 -5.359375 25.785156 -6.71875 26.109375 -8.25 C 26.441406 -9.78125 26.609375 -11.398438 26.609375 -13.109375 C 26.609375 -15.015625 26.316406 -16.78125 25.734375 -18.40625 C 25.148438 -20.03125 24.335938 -21.4375 23.296875 -22.625 C 22.265625 -23.820312 21.054688 -24.75 19.671875 -25.40625 C 18.296875 -26.070312 16.820312 -26.40625 15.25 -26.40625 Z M 15.25 -26.40625 "/></g></g></g><g fill="#eae0c8" fill-opacity="1"><g transform="translate(47.972253, 28.212357)"><g><path d="M 15.015625 -16.9375 C 14.816406 -17.820312 14.59375 -18.5 14.34375 -18.96875 C 14.101562 -19.4375 13.757812 -19.753906 13.3125 -19.921875 C 12.875 -20.085938 12.265625 -20.171875 11.484375 -20.171875 L 5.015625 -20.171875 L 5.015625 -10.671875 L 9.84375 -10.671875 C 10.882812 -10.671875 11.582031 -10.84375 11.9375 -11.1875 C 12.300781 -11.53125 12.484375 -12.140625 12.484375 -13.015625 L 12.78125 -13.015625 L 12.78125 -7.96875 L 12.484375 -7.96875 C 12.484375 -8.851562 12.300781 -9.460938 11.9375 -9.796875 C 11.582031 -10.140625 10.882812 -10.3125 9.84375 -10.3125 L 5.015625 -10.3125 L 5.015625 -0.359375 L 11.78125 -0.359375 C 12.5625 -0.359375 13.171875 -0.492188 13.609375 -0.765625 C 14.054688 -1.035156 14.398438 -1.445312 14.640625 -2 C 14.890625 -2.5625 15.109375 -3.28125 15.296875 -4.15625 L 15.59375 -4.15625 L 15.015625 0 L 0.59375 0 L 0.59375 -0.296875 C 1.46875 -0.296875 2.078125 -0.476562 2.421875 -0.84375 C 2.765625 -1.21875 2.9375 -1.914062 2.9375 -2.9375 L 2.9375 -17.59375 C 2.9375 -18.625 2.765625 -19.316406 2.421875 -19.671875 C 2.078125 -20.035156 1.46875 -20.21875 0.59375 -20.21875 L 0.59375 -20.515625 L 14.71875 -20.515625 L 15.296875 -16.9375 Z M 15.015625 -16.9375 "/></g></g></g><g fill="#eae0c8" fill-opacity="1"><g transform="translate(64.739504, 28.212357)"><g><path d="M 15.390625 -19.984375 L 15.390625 -20.515625 L 15.734375 -20.515625 L 15.734375 -14.65625 L 15.390625 -14.65625 C 15.390625 -15.632812 15.195312 -16.476562 14.8125 -17.1875 C 14.4375 -17.90625 13.9375 -18.503906 13.3125 -18.984375 C 12.6875 -19.460938 11.992188 -19.816406 11.234375 -20.046875 C 10.484375 -20.285156 9.738281 -20.40625 9 -20.40625 C 8.414062 -20.40625 7.804688 -20.320312 7.171875 -20.15625 C 6.535156 -19.988281 5.941406 -19.738281 5.390625 -19.40625 C 4.847656 -19.070312 4.40625 -18.640625 4.0625 -18.109375 C 3.71875 -17.585938 3.546875 -16.972656 3.546875 -16.265625 C 3.546875 -15.503906 3.785156 -14.84375 4.265625 -14.28125 C 4.742188 -13.726562 5.375 -13.238281 6.15625 -12.8125 C 6.9375 -12.382812 7.796875 -11.984375 8.734375 -11.609375 C 9.671875 -11.234375 10.609375 -10.847656 11.546875 -10.453125 C 12.484375 -10.066406 13.34375 -9.628906 14.125 -9.140625 C 14.90625 -8.648438 15.535156 -8.078125 16.015625 -7.421875 C 16.492188 -6.773438 16.734375 -6 16.734375 -5.09375 C 16.734375 -4.101562 16.503906 -3.257812 16.046875 -2.5625 C 15.585938 -1.875 14.976562 -1.320312 14.21875 -0.90625 C 13.457031 -0.5 12.609375 -0.203125 11.671875 -0.015625 C 10.742188 0.171875 9.820312 0.265625 8.90625 0.265625 C 7.632812 0.265625 6.519531 0.128906 5.5625 -0.140625 C 4.613281 -0.421875 3.738281 -0.804688 2.9375 -1.296875 C 2.675781 -1.460938 2.457031 -1.546875 2.28125 -1.546875 C 1.988281 -1.546875 1.84375 -1.265625 1.84375 -0.703125 L 1.84375 0 L 1.5 0 L 1.5 -6.625 L 1.84375 -6.625 C 1.84375 -5.6875 2.039062 -4.820312 2.4375 -4.03125 C 2.84375 -3.238281 3.382812 -2.546875 4.0625 -1.953125 C 4.738281 -1.367188 5.492188 -0.914062 6.328125 -0.59375 C 7.171875 -0.28125 8.03125 -0.125 8.90625 -0.125 C 9.820312 -0.125 10.722656 -0.269531 11.609375 -0.5625 C 12.503906 -0.851562 13.242188 -1.3125 13.828125 -1.9375 C 14.421875 -2.5625 14.71875 -3.378906 14.71875 -4.390625 C 14.71875 -5.210938 14.476562 -5.90625 14 -6.46875 C 13.519531 -7.039062 12.882812 -7.535156 12.09375 -7.953125 C 11.300781 -8.378906 10.4375 -8.757812 9.5 -9.09375 C 8.5625 -9.4375 7.625 -9.796875 6.6875 -10.171875 C 5.75 -10.546875 4.882812 -10.976562 4.09375 -11.46875 C 3.300781 -11.96875 2.664062 -12.5625 2.1875 -13.25 C 1.707031 -13.945312 1.46875 -14.804688 1.46875 -15.828125 C 1.46875 -16.765625 1.695312 -17.546875 2.15625 -18.171875 C 2.613281 -18.796875 3.207031 -19.296875 3.9375 -19.671875 C 4.675781 -20.054688 5.46875 -20.332031 6.3125 -20.5 C 7.164062 -20.664062 7.984375 -20.75 8.765625 -20.75 C 9.816406 -20.75 10.789062 -20.648438 11.6875 -20.453125 C 12.59375 -20.265625 13.460938 -19.914062 14.296875 -19.40625 C 14.578125 -19.226562 14.796875 -19.140625 14.953125 -19.140625 C 15.242188 -19.140625 15.390625 -19.421875 15.390625 -19.984375 Z M 15.390625 -19.984375 "/></g></g></g><g fill="#eae0c8" fill-opacity="1"><g transform="translate(82.649971, 28.212357)"><g><path d="M 5.390625 -17.59375 L 5.390625 -2.9375 C 5.390625 -1.914062 5.5625 -1.21875 5.90625 -0.84375 C 6.25 -0.476562 6.859375 -0.296875 7.734375 -0.296875 L 7.734375 0 L 1 0 L 1 -0.296875 C 1.875 -0.296875 2.484375 -0.476562 2.828125 -0.84375 C 3.171875 -1.21875 3.34375 -1.914062 3.34375 -2.9375 L 3.34375 -17.59375 C 3.34375 -18.625 3.171875 -19.316406 2.828125 -19.671875 C 2.484375 -20.035156 1.875 -20.21875 1 -20.21875 L 1 -20.515625 L 7.734375 -20.515625 L 7.734375 -20.21875 C 6.859375 -20.21875 6.25 -20.035156 5.90625 -19.671875 C 5.5625 -19.316406 5.390625 -18.625 5.390625 -17.59375 Z M 5.390625 -17.59375 "/></g></g></g><g fill="#eae0c8" fill-opacity="1"><g transform="translate(91.385347, 28.212357)"><g><path d="M 19.515625 -20.015625 L 19.515625 -20.515625 L 19.875 -20.515625 L 19.9375 -14.359375 L 19.578125 -14.359375 C 19.578125 -15.378906 19.332031 -16.265625 18.84375 -17.015625 C 18.351562 -17.765625 17.71875 -18.390625 16.9375 -18.890625 C 16.15625 -19.390625 15.304688 -19.765625 14.390625 -20.015625 C 13.472656 -20.273438 12.582031 -20.40625 11.71875 -20.40625 C 10.445312 -20.40625 9.300781 -20.097656 8.28125 -19.484375 C 7.269531 -18.878906 6.40625 -18.078125 5.6875 -17.078125 C 4.976562 -16.085938 4.429688 -14.992188 4.046875 -13.796875 C 3.671875 -12.609375 3.484375 -11.429688 3.484375 -10.265625 C 3.484375 -9.085938 3.671875 -7.898438 4.046875 -6.703125 C 4.429688 -5.515625 4.992188 -4.421875 5.734375 -3.421875 C 6.484375 -2.429688 7.390625 -1.632812 8.453125 -1.03125 C 9.515625 -0.425781 10.722656 -0.125 12.078125 -0.125 C 12.835938 -0.125 13.609375 -0.21875 14.390625 -0.40625 C 15.171875 -0.601562 15.882812 -0.898438 16.53125 -1.296875 C 17.175781 -1.703125 17.691406 -2.21875 18.078125 -2.84375 C 18.472656 -3.46875 18.671875 -4.203125 18.671875 -5.046875 L 18.671875 -7.265625 C 18.671875 -8.304688 18.5 -9.003906 18.15625 -9.359375 C 17.8125 -9.722656 17.203125 -9.90625 16.328125 -9.90625 L 16.328125 -10.203125 L 23.0625 -10.203125 L 23.0625 -9.90625 C 22.1875 -9.90625 21.578125 -9.722656 21.234375 -9.359375 C 20.890625 -9.003906 20.71875 -8.304688 20.71875 -7.265625 L 20.71875 0 L 20.375 0 L 19.984375 -1.3125 C 19.847656 -1.800781 19.644531 -2.046875 19.375 -2.046875 C 19.175781 -2.046875 18.921875 -1.941406 18.609375 -1.734375 C 17.941406 -1.265625 17.175781 -0.878906 16.3125 -0.578125 C 15.457031 -0.285156 14.597656 -0.078125 13.734375 0.046875 C 12.878906 0.171875 12.09375 0.234375 11.375 0.234375 C 9.96875 0.234375 8.644531 -0.0351562 7.40625 -0.578125 C 6.164062 -1.128906 5.078125 -1.882812 4.140625 -2.84375 C 3.210938 -3.800781 2.484375 -4.914062 1.953125 -6.1875 C 1.429688 -7.457031 1.171875 -8.816406 1.171875 -10.265625 C 1.171875 -11.703125 1.429688 -13.054688 1.953125 -14.328125 C 2.484375 -15.597656 3.226562 -16.710938 4.1875 -17.671875 C 5.144531 -18.628906 6.265625 -19.378906 7.546875 -19.921875 C 8.828125 -20.472656 10.21875 -20.75 11.71875 -20.75 C 12.875 -20.75 13.992188 -20.640625 15.078125 -20.421875 C 16.160156 -20.210938 17.25 -19.84375 18.34375 -19.3125 C 18.625 -19.195312 18.84375 -19.140625 19 -19.140625 C 19.34375 -19.140625 19.515625 -19.429688 19.515625 -20.015625 Z M 19.515625 -20.015625 "/></g></g></g><g fill="#eae0c8" fill-opacity="1"><g transform="translate(114.454971, 28.212357)"><g><path d="M 17.9375 -17.59375 L 17.9375 0 L 17.59375 0 L 3.28125 -19.203125 L 3.28125 -2.9375 C 3.28125 -1.914062 3.453125 -1.21875 3.796875 -0.84375 C 4.140625 -0.476562 4.75 -0.296875 5.625 -0.296875 L 5.625 0 L 0.59375 0 L 0.59375 -0.296875 C 1.46875 -0.296875 2.078125 -0.476562 2.421875 -0.84375 C 2.765625 -1.21875 2.9375 -1.914062 2.9375 -2.9375 L 2.9375 -17.59375 C 2.9375 -18.625 2.765625 -19.316406 2.421875 -19.671875 C 2.078125 -20.035156 1.46875 -20.21875 0.59375 -20.21875 L 0.59375 -20.515625 L 4.890625 -20.484375 L 17.59375 -3.375 L 17.59375 -17.59375 C 17.59375 -18.625 17.421875 -19.316406 17.078125 -19.671875 C 16.734375 -20.035156 16.125 -20.21875 15.25 -20.21875 L 15.25 -20.515625 L 20.28125 -20.515625 L 20.28125 -20.21875 C 19.40625 -20.21875 18.796875 -20.035156 18.453125 -19.671875 C 18.109375 -19.316406 17.9375 -18.625 17.9375 -17.59375 Z M 17.9375 -17.59375 "/></g></g></g></g></g></g><g fill="#eae0c8" fill-opacity="1"><g transform="translate(135.331169, 46.524312)"><g><path d="M 3.6875 -2.609375 L 3.6875 -2.484375 C 3.6875 -2.410156 3.660156 -2.328125 3.609375 -2.234375 C 3.390625 -1.898438 3.144531 -1.613281 2.875 -1.375 C 2.613281 -1.144531 2.378906 -0.953125 2.171875 -0.796875 C 2.015625 -0.710938 1.90625 -0.671875 1.84375 -0.671875 C 1.75 -0.671875 1.59375 -0.738281 1.375 -0.875 C 1.195312 -1.15625 1.109375 -1.351562 1.109375 -1.46875 C 1.109375 -1.507812 1.113281 -1.546875 1.125 -1.578125 C 1.132812 -1.617188 1.148438 -1.660156 1.171875 -1.703125 C 1.285156 -1.953125 1.460938 -2.222656 1.703125 -2.515625 C 1.953125 -2.804688 2.195312 -3.039062 2.4375 -3.21875 C 2.550781 -3.34375 2.675781 -3.40625 2.8125 -3.40625 C 2.945312 -3.40625 3.09375 -3.34375 3.25 -3.21875 C 3.351562 -3.164062 3.429688 -3.085938 3.484375 -2.984375 C 3.546875 -2.890625 3.613281 -2.765625 3.6875 -2.609375 Z M 3.6875 -2.609375 "/></g></g></g><g fill="#eae0c8" fill-opacity="1"><g transform="translate(144.184061, 46.524312)"><g><path d="M -1.53125 4.65625 C -1.070312 4.65625 -0.582031 4.5625 -0.0625 4.375 C 1.5625 3.757812 3.007812 2.679688 4.28125 1.140625 C 4.90625 0.398438 5.429688 -0.375 5.859375 -1.1875 C 6.285156 -2 6.628906 -2.832031 6.890625 -3.6875 C 6.929688 -3.832031 6.957031 -3.984375 6.96875 -4.140625 C 6.988281 -4.296875 7 -4.441406 7 -4.578125 C 7 -5.003906 6.953125 -5.34375 6.859375 -5.59375 C 5.203125 -5.070312 3.507812 -4.191406 1.78125 -2.953125 C 0.03125 -1.703125 -1.351562 -0.363281 -2.375 1.0625 C -2.84375 1.820312 -3.078125 2.503906 -3.078125 3.109375 C -3.078125 4.140625 -2.5625 4.65625 -1.53125 4.65625 Z M -1.5 5.5625 C -2.195312 5.5625 -2.757812 5.347656 -3.1875 4.921875 C -3.644531 4.515625 -3.875 3.9375 -3.875 3.1875 L -3.875 2.546875 C -3.875 2.140625 -3.566406 1.488281 -2.953125 0.59375 C -1.960938 -0.851562 -0.617188 -2.203125 1.078125 -3.453125 C 2.765625 -4.703125 4.535156 -5.648438 6.390625 -6.296875 C 6.304688 -6.453125 5.71875 -6.5625 4.625 -6.625 C 4.15625 -6.664062 3.6875 -6.71875 3.21875 -6.78125 C 2.75 -6.851562 2.28125 -6.9375 1.8125 -7.03125 C 0.875 -7.25 0.289062 -7.648438 0.0625 -8.234375 L 0.03125 -8.640625 C 0.03125 -9.410156 0.457031 -10.28125 1.3125 -11.25 C 2.175781 -12.226562 3.222656 -13.097656 4.453125 -13.859375 C 5.523438 -14.546875 6.4375 -14.890625 7.1875 -14.890625 C 7.59375 -14.890625 7.984375 -14.734375 8.359375 -14.421875 C 8.765625 -14.109375 8.96875 -13.785156 8.96875 -13.453125 C 8.96875 -13.140625 8.84375 -12.769531 8.59375 -12.34375 C 8.394531 -12.03125 8.171875 -11.875 7.921875 -11.875 C 7.546875 -11.875 7.222656 -12.128906 6.953125 -12.640625 C 6.828125 -12.828125 6.628906 -12.921875 6.359375 -12.921875 C 5.773438 -12.921875 4.925781 -12.492188 3.8125 -11.640625 C 2.519531 -10.722656 1.863281 -9.84375 1.84375 -9 C 1.863281 -8.664062 2.039062 -8.421875 2.375 -8.265625 C 2.53125 -8.191406 2.75 -8.128906 3.03125 -8.078125 C 3.3125 -8.023438 3.640625 -7.988281 4.015625 -7.96875 C 4.390625 -7.945312 4.753906 -7.90625 5.109375 -7.84375 C 5.472656 -7.789062 5.84375 -7.726562 6.21875 -7.65625 C 6.9375 -7.519531 7.429688 -7.242188 7.703125 -6.828125 C 8.253906 -7.023438 8.894531 -7.21875 9.625 -7.40625 C 10.363281 -7.601562 11.179688 -7.800781 12.078125 -8 C 14.597656 -8.582031 16.160156 -8.875 16.765625 -8.875 C 17.003906 -8.875 17.125 -8.804688 17.125 -8.671875 C 17.125 -8.554688 16.96875 -8.460938 16.65625 -8.390625 C 16.125 -8.304688 15.503906 -8.1875 14.796875 -8.03125 C 14.097656 -7.875 13.300781 -7.6875 12.40625 -7.46875 C 10.582031 -7.019531 9.15625 -6.582031 8.125 -6.15625 C 8.0625 -6.132812 8.03125 -6.09375 8.03125 -6.03125 L 8.0625 -5.921875 C 8.132812 -5.703125 8.171875 -5.289062 8.171875 -4.6875 C 8.171875 -4.082031 8.046875 -3.398438 7.796875 -2.640625 C 7.148438 -0.992188 6.164062 0.550781 4.84375 2 C 3.488281 3.457031 2 4.519531 0.375 5.1875 C 0.03125 5.300781 -0.296875 5.390625 -0.609375 5.453125 C -0.921875 5.523438 -1.21875 5.5625 -1.5 5.5625 Z M -1.5 5.5625 "/></g></g></g><g fill="#eae0c8" fill-opacity="1"><g transform="translate(160.834533, 46.524312)"><g><path d="M -3.421875 3.71875 L -3.484375 3.71875 C -3.640625 3.71875 -3.796875 3.671875 -3.953125 3.578125 C -4.085938 3.460938 -4.15625 3.285156 -4.15625 3.046875 C -4.15625 2.242188 -3.359375 -0.195312 -1.765625 -4.28125 C -0.835938 -6.664062 0.175781 -9.054688 1.28125 -11.453125 C 2.394531 -13.859375 3.597656 -16.273438 4.890625 -18.703125 C 6.910156 -22.492188 8.582031 -25.203125 9.90625 -26.828125 C 10.238281 -27.097656 10.5625 -27.234375 10.875 -27.234375 C 11.269531 -27.234375 11.582031 -27.078125 11.8125 -26.765625 C 11.925781 -26.585938 11.984375 -26.398438 11.984375 -26.203125 C 11.984375 -26.148438 11.984375 -26.09375 11.984375 -26.03125 C 11.984375 -25.96875 11.96875 -25.910156 11.9375 -25.859375 C 11.625 -25.171875 11.238281 -24.660156 10.78125 -24.328125 C 10.726562 -24.285156 10.671875 -24.238281 10.609375 -24.1875 C 10.546875 -24.144531 10.488281 -24.09375 10.4375 -24.03125 C 10.019531 -23.664062 8.953125 -22.023438 7.234375 -19.109375 C 5.753906 -16.628906 4.523438 -14.457031 3.546875 -12.59375 C 2.566406 -10.738281 1.832031 -9.207031 1.34375 -8 C 1.625 -8.3125 1.984375 -8.671875 2.421875 -9.078125 C 2.859375 -9.492188 3.378906 -9.972656 3.984375 -10.515625 C 6.921875 -13.117188 9.226562 -14.421875 10.90625 -14.421875 C 11.351562 -14.421875 11.6875 -14.3125 11.90625 -14.09375 C 12.113281 -13.90625 12.226562 -13.671875 12.25 -13.390625 C 12.25 -13.160156 12.144531 -12.9375 11.9375 -12.71875 C 11.789062 -12.601562 11.640625 -12.546875 11.484375 -12.546875 C 11.296875 -12.546875 11.113281 -12.625 10.9375 -12.78125 C 10.71875 -12.9375 10.5625 -13.015625 10.46875 -13.015625 L 10.3125 -12.984375 C 9.570312 -12.753906 8.628906 -12.257812 7.484375 -11.5 C 6.347656 -10.75 5.015625 -9.726562 3.484375 -8.4375 C 1.410156 -6.675781 0.375 -5.601562 0.375 -5.21875 C 0.375 -5.0625 0.515625 -4.984375 0.796875 -4.984375 C 1.828125 -5.117188 2.992188 -5.3125 4.296875 -5.5625 C 5.597656 -5.820312 7.039062 -6.144531 8.625 -6.53125 C 10.207031 -6.925781 11.660156 -7.304688 12.984375 -7.671875 C 14.316406 -8.046875 15.519531 -8.398438 16.59375 -8.734375 L 16.765625 -8.765625 C 16.960938 -8.765625 17.085938 -8.707031 17.140625 -8.59375 C 17.140625 -8.332031 17.003906 -8.15625 16.734375 -8.0625 C 14.316406 -7.21875 11.863281 -6.460938 9.375 -5.796875 C 6.894531 -5.140625 4.382812 -4.554688 1.84375 -4.046875 L 1.640625 -3.984375 C 0.953125 -3.890625 0.460938 -3.773438 0.171875 -3.640625 C -0.273438 -3.421875 -0.925781 -2.117188 -1.78125 0.265625 L -2.703125 2.46875 C -2.710938 2.539062 -2.734375 2.617188 -2.765625 2.703125 C -2.796875 2.796875 -2.820312 2.890625 -2.84375 2.984375 C -2.882812 3.179688 -2.941406 3.347656 -3.015625 3.484375 C -3.117188 3.640625 -3.253906 3.71875 -3.421875 3.71875 Z M -3.421875 3.71875 "/></g></g></g></g></g></svg>