<svg xmlns="http://www.w3.org/2000/svg" xmlns:xlink="http://www.w3.org/1999/xlink" width="940" zoomAndPan="magnify" viewBox="0 0 705 260.999984" height="348" preserveAspectRatio="xMidYMid meet" version="1.0"><defs><g/></defs><g fill="#000000" fill-opacity="1"><g transform="translate(160.983315, 134.338577)"><g><path d="M 29.5625 -28 L 35.59375 -28 L 35.59375 -27.59375 C 34.394531 -27.59375 33.5625 -27.347656 33.09375 -26.859375 C 32.632812 -26.367188 32.40625 -25.414062 32.40625 -24 L 32.40625 -4 C 32.40625 -2.613281 32.632812 -1.664062 33.09375 -1.15625 C 33.5625 -0.65625 34.394531 -0.40625 35.59375 -0.40625 L 35.59375 0 L 26.40625 0 L 26.40625 -0.40625 C 27.550781 -0.40625 28.367188 -0.628906 28.859375 -1.078125 C 29.347656 -1.535156 29.59375 -2.390625 29.59375 -3.640625 L 29.5625 -26.71875 L 18 0 L 17.4375 0 L 4.484375 -25.796875 L 4.484375 -4 C 4.484375 -2.613281 4.710938 -1.664062 5.171875 -1.15625 C 5.640625 -0.65625 6.476562 -0.40625 7.6875 -0.40625 L 7.6875 0 L 0.796875 0 L 0.796875 -0.40625 C 1.992188 -0.40625 2.828125 -0.65625 3.296875 -1.15625 C 3.765625 -1.664062 4 -2.613281 4 -4 L 4 -24 C 4 -25.414062 3.765625 -26.367188 3.296875 -26.859375 C 2.828125 -27.347656 1.992188 -27.59375 0.796875 -27.59375 L 0.796875 -28 L 6.59375 -28 L 18.921875 -3.4375 Z M 29.5625 -28 "/></g></g></g><g fill="#000000" fill-opacity="1"><g transform="translate(197.3797, 134.338577)"><g><path d="M 13.28125 -28.3125 L 16.078125 -28.3125 L 25.234375 -2.921875 C 25.660156 -1.929688 26.113281 -1.265625 26.59375 -0.921875 C 27.070312 -0.578125 27.832031 -0.40625 28.875 -0.40625 L 28.875 0 L 20.15625 0 L 20.15625 -0.40625 C 21.300781 -0.40625 22 -0.625 22.25 -1.0625 C 22.507812 -1.5 22.441406 -2.316406 22.046875 -3.515625 L 20.28125 -8.40625 L 6.5625 -8.40625 L 4.6875 -3.28125 C 4.332031 -2.1875 4.296875 -1.429688 4.578125 -1.015625 C 4.859375 -0.609375 5.546875 -0.40625 6.640625 -0.40625 L 6.640625 0 L 0.40625 0 L 0.40625 -0.40625 C 1.46875 -0.40625 2.238281 -0.585938 2.71875 -0.953125 C 3.195312 -1.328125 3.648438 -2.035156 4.078125 -3.078125 Z M 6.71875 -8.875 L 20.125 -8.875 L 13.4375 -27.3125 Z M 6.71875 -8.875 "/></g></g></g><g fill="#000000" fill-opacity="1"><g transform="translate(226.656786, 134.338577)"><g><path d="M 6.796875 -24 L 6.796875 -4 C 6.796875 -2.851562 6.957031 -2.015625 7.28125 -1.484375 C 7.601562 -0.953125 8.132812 -0.617188 8.875 -0.484375 L 16.796875 -0.484375 C 17.867188 -0.484375 18.703125 -0.664062 19.296875 -1.03125 C 19.898438 -1.40625 20.367188 -1.972656 20.703125 -2.734375 C 21.035156 -3.492188 21.332031 -4.476562 21.59375 -5.6875 L 22 -5.6875 L 21.203125 0 L 0.796875 0 L 0.796875 -0.40625 C 1.992188 -0.40625 2.828125 -0.65625 3.296875 -1.15625 C 3.765625 -1.664062 4 -2.613281 4 -4 L 4 -24 C 4 -25.414062 3.765625 -26.367188 3.296875 -26.859375 C 2.828125 -27.347656 1.992188 -27.59375 0.796875 -27.59375 L 0.796875 -28 L 10 -28 L 10 -27.59375 C 8.800781 -27.59375 7.96875 -27.347656 7.5 -26.859375 C 7.03125 -26.367188 6.796875 -25.414062 6.796875 -24 Z M 6.796875 -24 "/></g></g></g><g fill="#000000" fill-opacity="1"><g transform="translate(249.854483, 134.338577)"><g><path d="M 20.484375 -23.125 C 20.210938 -24.320312 19.910156 -25.238281 19.578125 -25.875 C 19.242188 -26.519531 18.773438 -26.953125 18.171875 -27.171875 C 17.578125 -27.398438 16.75 -27.515625 15.6875 -27.515625 L 6.84375 -27.515625 L 6.84375 -14.5625 L 13.4375 -14.5625 C 14.851562 -14.5625 15.804688 -14.789062 16.296875 -15.25 C 16.796875 -15.71875 17.046875 -16.554688 17.046875 -17.765625 L 17.4375 -17.765625 L 17.4375 -10.875 L 17.046875 -10.875 C 17.046875 -12.082031 16.796875 -12.914062 16.296875 -13.375 C 15.804688 -13.84375 14.851562 -14.078125 13.4375 -14.078125 L 6.84375 -14.078125 L 6.84375 -0.484375 L 16.078125 -0.484375 C 17.148438 -0.484375 17.984375 -0.664062 18.578125 -1.03125 C 19.179688 -1.40625 19.648438 -1.972656 19.984375 -2.734375 C 20.316406 -3.492188 20.613281 -4.476562 20.875 -5.6875 L 21.28125 -5.6875 L 20.484375 0 L 0.796875 0 L 0.796875 -0.40625 C 1.992188 -0.40625 2.828125 -0.65625 3.296875 -1.15625 C 3.765625 -1.664062 4 -2.613281 4 -4 L 4 -24 C 4 -25.414062 3.765625 -26.367188 3.296875 -26.859375 C 2.828125 -27.347656 1.992188 -27.59375 0.796875 -27.59375 L 0.796875 -28 L 20.078125 -28 L 20.875 -23.125 Z M 10.203125 -31.765625 L 11.953125 -34.6875 L 13.15625 -34.6875 L 10.640625 -31.765625 Z M 10.203125 -31.765625 "/></g></g></g><g fill="#000000" fill-opacity="1"><g transform="translate(272.732205, 134.338577)"><g/></g></g><g fill="#000000" fill-opacity="1"><g transform="translate(283.131176, 134.338577)"><g><path d="M 4 -24 C 4 -25.414062 3.765625 -26.367188 3.296875 -26.859375 C 2.828125 -27.347656 1.992188 -27.59375 0.796875 -27.59375 L 0.796875 -28 L 16.203125 -28 C 17.671875 -28 19.085938 -27.664062 20.453125 -27 C 21.828125 -26.332031 22.953125 -25.390625 23.828125 -24.171875 C 24.710938 -22.960938 25.15625 -21.519531 25.15625 -19.84375 C 25.15625 -18.1875 24.710938 -16.742188 23.828125 -15.515625 C 22.953125 -14.296875 21.828125 -13.351562 20.453125 -12.6875 C 19.085938 -12.019531 17.671875 -11.6875 16.203125 -11.6875 L 6.796875 -11.6875 L 6.796875 -4 C 6.796875 -2.613281 7.03125 -1.664062 7.5 -1.15625 C 7.96875 -0.65625 8.800781 -0.40625 10 -0.40625 L 10 0 L 0.796875 0 L 0.796875 -0.40625 C 1.992188 -0.40625 2.828125 -0.65625 3.296875 -1.15625 C 3.765625 -1.664062 4 -2.613281 4 -4 Z M 6.796875 -12.15625 L 16.203125 -12.15625 C 17.191406 -12.15625 18.046875 -12.410156 18.765625 -12.921875 C 19.484375 -13.429688 20.082031 -14.078125 20.5625 -14.859375 C 21.039062 -15.648438 21.390625 -16.488281 21.609375 -17.375 C 21.835938 -18.269531 21.953125 -19.101562 21.953125 -19.875 C 21.953125 -20.65625 21.835938 -21.484375 21.609375 -22.359375 C 21.390625 -23.242188 21.039062 -24.070312 20.5625 -24.84375 C 20.082031 -25.613281 19.484375 -26.25 18.765625 -26.75 C 18.046875 -27.257812 17.191406 -27.515625 16.203125 -27.515625 L 6.796875 -27.515625 Z M 6.796875 -12.15625 "/></g></g></g><g fill="#000000" fill-opacity="1"><g transform="translate(309.488553, 134.338577)"><g><path d="M 25.15625 -20.125 C 25.15625 -18.5 24.75 -17.109375 23.9375 -15.953125 C 23.125 -14.804688 22.097656 -13.921875 20.859375 -13.296875 C 19.617188 -12.671875 18.359375 -12.316406 17.078125 -12.234375 L 22.234375 -3.4375 C 22.847656 -2.375 23.59375 -1.601562 24.46875 -1.125 C 25.351562 -0.644531 26.359375 -0.40625 27.484375 -0.40625 L 27.484375 0 L 17.921875 0 L 17.921875 -0.40625 C 19.015625 -0.40625 19.597656 -0.671875 19.671875 -1.203125 C 19.753906 -1.734375 19.460938 -2.5625 18.796875 -3.6875 L 13.796875 -12.234375 L 6.796875 -12.234375 L 6.796875 -3.875 C 6.796875 -2.519531 7.03125 -1.601562 7.5 -1.125 C 7.96875 -0.644531 8.800781 -0.40625 10 -0.40625 L 10 0 L 0.796875 0 L 0.796875 -0.40625 C 1.992188 -0.40625 2.828125 -0.65625 3.296875 -1.15625 C 3.765625 -1.664062 4 -2.613281 4 -4 L 4 -24 C 4 -25.414062 3.765625 -26.367188 3.296875 -26.859375 C 2.828125 -27.347656 1.992188 -27.59375 0.796875 -27.59375 L 0.796875 -28 L 16.203125 -28 C 17.242188 -28 18.296875 -27.820312 19.359375 -27.46875 C 20.421875 -27.125 21.382812 -26.613281 22.25 -25.9375 C 23.125 -25.257812 23.828125 -24.429688 24.359375 -23.453125 C 24.890625 -22.484375 25.15625 -21.375 25.15625 -20.125 Z M 6.796875 -27.515625 L 6.796875 -12.71875 L 16.203125 -12.71875 C 17.160156 -12.71875 18 -12.953125 18.71875 -13.421875 C 19.4375 -13.890625 20.035156 -14.492188 20.515625 -15.234375 C 20.992188 -15.984375 21.351562 -16.785156 21.59375 -17.640625 C 21.832031 -18.492188 21.953125 -19.320312 21.953125 -20.125 C 21.953125 -20.894531 21.832031 -21.710938 21.59375 -22.578125 C 21.351562 -23.441406 20.992188 -24.25 20.515625 -25 C 20.035156 -25.75 19.4375 -26.351562 18.71875 -26.8125 C 18 -27.28125 17.160156 -27.515625 16.203125 -27.515625 Z M 6.796875 -27.515625 "/></g></g></g><g fill="#000000" fill-opacity="1"><g transform="translate(336.165861, 134.338577)"><g><path d="M 15.921875 -28.3125 C 17.835938 -28.3125 19.640625 -27.9375 21.328125 -27.1875 C 23.023438 -26.445312 24.507812 -25.421875 25.78125 -24.109375 C 27.050781 -22.804688 28.046875 -21.285156 28.765625 -19.546875 C 29.484375 -17.816406 29.84375 -15.96875 29.84375 -14 C 29.84375 -12.03125 29.484375 -10.175781 28.765625 -8.4375 C 28.046875 -6.707031 27.050781 -5.1875 25.78125 -3.875 C 24.507812 -2.570312 23.023438 -1.546875 21.328125 -0.796875 C 19.640625 -0.0546875 17.835938 0.3125 15.921875 0.3125 C 14.003906 0.3125 12.195312 -0.0546875 10.5 -0.796875 C 8.800781 -1.546875 7.316406 -2.570312 6.046875 -3.875 C 4.785156 -5.1875 3.796875 -6.707031 3.078125 -8.4375 C 2.359375 -10.175781 2 -12.03125 2 -14 C 2 -15.96875 2.359375 -17.816406 3.078125 -19.546875 C 3.796875 -21.285156 4.785156 -22.804688 6.046875 -24.109375 C 7.316406 -25.421875 8.800781 -26.445312 10.5 -27.1875 C 12.195312 -27.9375 14.003906 -28.3125 15.921875 -28.3125 Z M 15.921875 -0.15625 C 17.703125 -0.15625 19.265625 -0.585938 20.609375 -1.453125 C 21.960938 -2.328125 23.082031 -3.460938 23.96875 -4.859375 C 24.863281 -6.253906 25.539062 -7.757812 26 -9.375 C 26.457031 -10.988281 26.6875 -12.53125 26.6875 -14 C 26.6875 -15.46875 26.457031 -17.007812 26 -18.625 C 25.539062 -20.238281 24.863281 -21.742188 23.96875 -23.140625 C 23.082031 -24.535156 21.960938 -25.664062 20.609375 -26.53125 C 19.265625 -27.40625 17.703125 -27.84375 15.921875 -27.84375 C 14.128906 -27.84375 12.566406 -27.40625 11.234375 -26.53125 C 9.898438 -25.664062 8.785156 -24.535156 7.890625 -23.140625 C 7.003906 -21.742188 6.335938 -20.238281 5.890625 -18.625 C 5.453125 -17.007812 5.234375 -15.46875 5.234375 -14 C 5.234375 -12.53125 5.453125 -10.988281 5.890625 -9.375 C 6.335938 -7.757812 7.003906 -6.253906 7.890625 -4.859375 C 8.785156 -3.460938 9.898438 -2.328125 11.234375 -1.453125 C 12.566406 -0.585938 14.128906 -0.15625 15.921875 -0.15625 Z M 15.921875 -0.15625 "/></g></g></g><g fill="#000000" fill-opacity="1"><g transform="translate(366.802767, 134.338577)"><g><path d="M 6.203125 -0.484375 C 7.316406 -0.484375 8.164062 -0.722656 8.75 -1.203125 C 9.34375 -1.679688 9.75 -2.285156 9.96875 -3.015625 C 10.195312 -3.753906 10.332031 -4.507812 10.375 -5.28125 C 10.414062 -6.050781 10.4375 -6.71875 10.4375 -7.28125 L 10.4375 -24 C 10.4375 -25.414062 10.203125 -26.367188 9.734375 -26.859375 C 9.273438 -27.347656 8.441406 -27.59375 7.234375 -27.59375 L 7.234375 -28 L 16.4375 -28 L 16.4375 -27.59375 C 15.238281 -27.59375 14.40625 -27.347656 13.9375 -26.859375 C 13.46875 -26.367188 13.234375 -25.414062 13.234375 -24 L 13.234375 -7.28125 C 13.234375 -4.800781 12.703125 -2.90625 11.640625 -1.59375 C 10.578125 -0.289062 8.765625 0.359375 6.203125 0.359375 C 4.890625 0.359375 3.707031 -0.0390625 2.65625 -0.84375 C 1.601562 -1.644531 0.957031 -2.679688 0.71875 -3.953125 L 1.203125 -4.125 C 1.578125 -2.8125 2.253906 -1.875 3.234375 -1.3125 C 4.222656 -0.757812 5.210938 -0.484375 6.203125 -0.484375 Z M 6.203125 -0.484375 "/></g></g></g><g fill="#000000" fill-opacity="1"><g transform="translate(384.041047, 134.338577)"><g><path d="M 20.484375 -23.125 C 20.210938 -24.320312 19.910156 -25.238281 19.578125 -25.875 C 19.242188 -26.519531 18.773438 -26.953125 18.171875 -27.171875 C 17.578125 -27.398438 16.75 -27.515625 15.6875 -27.515625 L 6.84375 -27.515625 L 6.84375 -14.5625 L 13.4375 -14.5625 C 14.851562 -14.5625 15.804688 -14.789062 16.296875 -15.25 C 16.796875 -15.71875 17.046875 -16.554688 17.046875 -17.765625 L 17.4375 -17.765625 L 17.4375 -10.875 L 17.046875 -10.875 C 17.046875 -12.082031 16.796875 -12.914062 16.296875 -13.375 C 15.804688 -13.84375 14.851562 -14.078125 13.4375 -14.078125 L 6.84375 -14.078125 L 6.84375 -0.484375 L 16.078125 -0.484375 C 17.148438 -0.484375 17.984375 -0.664062 18.578125 -1.03125 C 19.179688 -1.40625 19.648438 -1.972656 19.984375 -2.734375 C 20.316406 -3.492188 20.613281 -4.476562 20.875 -5.6875 L 21.28125 -5.6875 L 20.484375 0 L 0.796875 0 L 0.796875 -0.40625 C 1.992188 -0.40625 2.828125 -0.65625 3.296875 -1.15625 C 3.765625 -1.664062 4 -2.613281 4 -4 L 4 -24 C 4 -25.414062 3.765625 -26.367188 3.296875 -26.859375 C 2.828125 -27.347656 1.992188 -27.59375 0.796875 -27.59375 L 0.796875 -28 L 20.078125 -28 L 20.875 -23.125 Z M 20.484375 -23.125 "/></g></g></g><g fill="#000000" fill-opacity="1"><g transform="translate(406.918791, 134.338577)"><g><path d="M 6.796875 -24.359375 L 6.796875 -12.4375 L 18.046875 -24.640625 C 18.523438 -25.148438 18.867188 -25.625 19.078125 -26.0625 C 19.296875 -26.5 19.300781 -26.863281 19.09375 -27.15625 C 18.894531 -27.445312 18.410156 -27.59375 17.640625 -27.59375 L 17.640625 -28 L 24.71875 -28 L 24.71875 -27.59375 C 23.675781 -27.59375 22.695312 -27.375 21.78125 -26.9375 C 20.863281 -26.5 19.988281 -25.894531 19.15625 -25.125 L 10.953125 -16.234375 L 20.71875 -3.515625 C 21.570312 -2.535156 22.484375 -1.769531 23.453125 -1.21875 C 24.429688 -0.675781 25.476562 -0.40625 26.59375 -0.40625 L 26.59375 0 L 16.6875 0 L 16.6875 -0.40625 C 17.425781 -0.40625 17.878906 -0.550781 18.046875 -0.84375 C 18.222656 -1.132812 18.210938 -1.523438 18.015625 -2.015625 C 17.816406 -2.515625 17.519531 -3.039062 17.125 -3.59375 L 9.078125 -14.15625 L 6.796875 -11.6875 L 6.796875 -4.640625 C 6.796875 -2.984375 7.03125 -1.863281 7.5 -1.28125 C 7.96875 -0.695312 8.800781 -0.40625 10 -0.40625 L 10 0 L 0.796875 0 L 0.796875 -0.40625 C 1.992188 -0.40625 2.828125 -0.65625 3.296875 -1.15625 C 3.765625 -1.664062 4 -2.613281 4 -4 L 4 -24 C 4 -25.414062 3.765625 -26.367188 3.296875 -26.859375 C 2.828125 -27.347656 1.992188 -27.59375 0.796875 -27.59375 L 0.796875 -28 L 10 -28 L 10 -27.59375 C 8.800781 -27.59375 7.96875 -27.363281 7.5 -26.90625 C 7.03125 -26.457031 6.796875 -25.609375 6.796875 -24.359375 Z M 6.796875 -24.359375 "/></g></g></g><g fill="#000000" fill-opacity="1"><g transform="translate(432.716151, 134.338577)"><g><path d="M 24.359375 -28 L 25.15625 -23.125 L 24.765625 -23.125 C 24.492188 -24.320312 24.191406 -25.238281 23.859375 -25.875 C 23.523438 -26.519531 23.054688 -26.953125 22.453125 -27.171875 C 21.859375 -27.398438 21.023438 -27.515625 19.953125 -27.515625 L 14.5625 -27.515625 L 14.5625 -4 C 14.5625 -2.613281 14.789062 -1.664062 15.25 -1.15625 C 15.71875 -0.65625 16.554688 -0.40625 17.765625 -0.40625 L 17.765625 0 L 8.5625 0 L 8.5625 -0.40625 C 9.757812 -0.40625 10.59375 -0.65625 11.0625 -1.15625 C 11.53125 -1.664062 11.765625 -2.613281 11.765625 -4 L 11.765625 -27.515625 L 6.40625 -27.515625 C 5.332031 -27.515625 4.492188 -27.398438 3.890625 -27.171875 C 3.296875 -26.953125 2.832031 -26.519531 2.5 -25.875 C 2.164062 -25.238281 1.863281 -24.320312 1.59375 -23.125 L 1.203125 -23.125 L 2 -28 Z M 24.359375 -28 "/></g></g></g><g fill="#000000" fill-opacity="1"><g transform="translate(459.07354, 134.338577)"><g><path d="M 16.046875 -4 C 16.046875 -2.613281 16.273438 -1.664062 16.734375 -1.15625 C 17.203125 -0.65625 18.035156 -0.40625 19.234375 -0.40625 L 19.234375 0 L 10 0 L 10 -0.40625 C 11.175781 -0.40625 11.992188 -0.632812 12.453125 -1.09375 C 12.921875 -1.5625 13.171875 -2.425781 13.203125 -3.6875 L 13.28125 -12.3125 L 5.125 -24.921875 C 4.457031 -25.910156 3.828125 -26.601562 3.234375 -27 C 2.648438 -27.394531 1.835938 -27.59375 0.796875 -27.59375 L 0.796875 -28 L 9.59375 -28 L 9.59375 -27.59375 C 8.582031 -27.59375 8.007812 -27.394531 7.875 -27 C 7.75 -26.601562 7.9375 -25.960938 8.4375 -25.078125 L 15.796875 -13.640625 L 22.953125 -24.4375 C 23.679688 -25.613281 23.941406 -26.429688 23.734375 -26.890625 C 23.535156 -27.359375 22.863281 -27.59375 21.71875 -27.59375 L 21.71875 -28 L 28.15625 -28 L 28.15625 -27.59375 C 27.09375 -27.59375 26.265625 -27.359375 25.671875 -26.890625 C 25.085938 -26.429688 24.453125 -25.695312 23.765625 -24.6875 L 16.046875 -13.125 Z M 16.046875 -4 "/></g></g></g><g fill="#000000" fill-opacity="1"><g transform="translate(358.770073, 160.661385)"><g><path d="M -1.046875 3.1875 C -0.734375 3.1875 -0.398438 3.117188 -0.046875 2.984375 C 1.066406 2.566406 2.054688 1.832031 2.921875 0.78125 C 3.347656 0.269531 3.707031 -0.257812 4 -0.8125 C 4.289062 -1.363281 4.523438 -1.929688 4.703125 -2.515625 C 4.722656 -2.609375 4.738281 -2.707031 4.75 -2.8125 C 4.769531 -2.925781 4.78125 -3.03125 4.78125 -3.125 C 4.78125 -3.414062 4.75 -3.644531 4.6875 -3.8125 C 3.550781 -3.457031 2.394531 -2.859375 1.21875 -2.015625 C 0.0195312 -1.160156 -0.925781 -0.246094 -1.625 0.71875 C -1.9375 1.238281 -2.09375 1.707031 -2.09375 2.125 C -2.09375 2.832031 -1.742188 3.1875 -1.046875 3.1875 Z M -1.015625 3.796875 C -1.492188 3.796875 -1.882812 3.648438 -2.1875 3.359375 C -2.488281 3.078125 -2.640625 2.6875 -2.640625 2.1875 L -2.640625 1.734375 C -2.640625 1.453125 -2.429688 1.007812 -2.015625 0.40625 C -1.335938 -0.582031 -0.417969 -1.503906 0.734375 -2.359375 C 1.878906 -3.210938 3.085938 -3.859375 4.359375 -4.296875 C 4.304688 -4.398438 3.90625 -4.472656 3.15625 -4.515625 C 2.84375 -4.546875 2.523438 -4.582031 2.203125 -4.625 C 1.878906 -4.675781 1.554688 -4.734375 1.234375 -4.796875 C 0.597656 -4.941406 0.203125 -5.21875 0.046875 -5.625 L 0.015625 -5.90625 C 0.015625 -6.425781 0.3125 -7.019531 0.90625 -7.6875 C 1.488281 -8.351562 2.203125 -8.941406 3.046875 -9.453125 C 3.773438 -9.921875 4.394531 -10.15625 4.90625 -10.15625 C 5.175781 -10.15625 5.441406 -10.050781 5.703125 -9.84375 C 5.984375 -9.625 6.125 -9.40625 6.125 -9.1875 C 6.125 -8.96875 6.035156 -8.710938 5.859375 -8.421875 C 5.722656 -8.203125 5.570312 -8.09375 5.40625 -8.09375 C 5.144531 -8.09375 4.921875 -8.269531 4.734375 -8.625 C 4.660156 -8.75 4.53125 -8.8125 4.34375 -8.8125 C 3.9375 -8.8125 3.351562 -8.519531 2.59375 -7.9375 C 1.71875 -7.3125 1.273438 -6.710938 1.265625 -6.140625 C 1.273438 -5.910156 1.394531 -5.742188 1.625 -5.640625 C 1.726562 -5.585938 1.875 -5.539062 2.0625 -5.5 C 2.257812 -5.46875 2.484375 -5.445312 2.734375 -5.4375 C 2.992188 -5.425781 3.242188 -5.398438 3.484375 -5.359375 C 3.734375 -5.316406 3.984375 -5.269531 4.234375 -5.21875 C 4.734375 -5.125 5.078125 -4.9375 5.265625 -4.65625 C 5.628906 -4.789062 6.0625 -4.925781 6.5625 -5.0625 C 7.0625 -5.195312 7.617188 -5.328125 8.234375 -5.453125 C 9.953125 -5.859375 11.019531 -6.0625 11.4375 -6.0625 C 11.601562 -6.0625 11.6875 -6.015625 11.6875 -5.921875 C 11.6875 -5.835938 11.578125 -5.769531 11.359375 -5.71875 C 10.992188 -5.664062 10.570312 -5.582031 10.09375 -5.46875 C 9.613281 -5.363281 9.066406 -5.238281 8.453125 -5.09375 C 7.210938 -4.789062 6.242188 -4.492188 5.546875 -4.203125 C 5.503906 -4.191406 5.484375 -4.164062 5.484375 -4.125 L 5.5 -4.046875 C 5.550781 -3.890625 5.578125 -3.609375 5.578125 -3.203125 C 5.578125 -2.785156 5.488281 -2.316406 5.3125 -1.796875 C 4.875 -0.679688 4.203125 0.367188 3.296875 1.359375 C 2.378906 2.359375 1.367188 3.085938 0.265625 3.546875 C 0.0234375 3.617188 -0.195312 3.675781 -0.40625 3.71875 C -0.625 3.769531 -0.828125 3.796875 -1.015625 3.796875 Z M -1.015625 3.796875 "/></g></g></g><g fill="#000000" fill-opacity="1"><g transform="translate(370.125598, 160.661385)"><g/></g></g><g fill="#000000" fill-opacity="1"><g transform="translate(377.502688, 160.661385)"><g><path d="M -0.046875 -1.125 C -0.773438 -1.144531 -1.140625 -1.4375 -1.140625 -2 C -1.140625 -2.125 -1.117188 -2.265625 -1.078125 -2.421875 C -0.546875 -4.796875 0.03125 -6.34375 0.65625 -7.0625 C 0.726562 -7.125 0.84375 -7.15625 1 -7.15625 C 1.09375 -7.15625 1.1875 -7.128906 1.28125 -7.078125 C 1.375 -7.023438 1.441406 -6.957031 1.484375 -6.875 C 1.535156 -6.8125 1.5625 -6.738281 1.5625 -6.65625 C 1.5625 -6.5625 1.359375 -6.023438 0.953125 -5.046875 C 0.503906 -3.984375 0.1875 -3.019531 0 -2.15625 L 0 -2.125 C 0 -2.082031 0.015625 -2.0625 0.046875 -2.0625 L 0.0625 -2.0625 L 0.140625 -2.078125 L 1.65625 -3.421875 C 3.488281 -5.128906 5.132812 -6.457031 6.59375 -7.40625 C 6.65625 -7.425781 6.722656 -7.4375 6.796875 -7.4375 C 6.804688 -7.4375 6.820312 -7.4375 6.84375 -7.4375 C 6.863281 -7.4375 6.890625 -7.4375 6.921875 -7.4375 C 6.972656 -7.4375 7.019531 -7.410156 7.0625 -7.359375 C 7.070312 -7.328125 7.078125 -7.296875 7.078125 -7.265625 C 7.085938 -7.242188 7.09375 -7.222656 7.09375 -7.203125 C 7.09375 -7.097656 7.066406 -7.015625 7.015625 -6.953125 C 5.941406 -6.222656 4.960938 -5.445312 4.078125 -4.625 C 3.785156 -4.351562 3.492188 -4.078125 3.203125 -3.796875 C 2.910156 -3.515625 2.613281 -3.242188 2.3125 -2.984375 L 0.734375 -1.5 L 0.5625 -1.375 C 0.382812 -1.207031 0.179688 -1.125 -0.046875 -1.125 Z M -0.046875 -1.125 "/></g></g></g><g fill="#000000" fill-opacity="1"><g transform="translate(385.079694, 160.661385)"><g><path d="M 0.78125 -5.15625 C 1.21875 -5.320312 1.644531 -5.570312 2.0625 -5.90625 C 2.582031 -6.300781 2.863281 -6.601562 2.90625 -6.8125 C 2.113281 -6.539062 1.40625 -5.988281 0.78125 -5.15625 Z M 1.09375 -1.9375 C 0.300781 -2.007812 -0.226562 -2.285156 -0.5 -2.765625 C -0.675781 -3.097656 -0.769531 -3.488281 -0.78125 -3.9375 C -0.78125 -4.070312 -0.765625 -4.210938 -0.734375 -4.359375 C -0.710938 -4.515625 -0.675781 -4.6875 -0.625 -4.875 C -0.0703125 -6.15625 0.867188 -7.082031 2.203125 -7.65625 C 2.492188 -7.75 2.789062 -7.796875 3.09375 -7.796875 C 3.644531 -7.796875 3.921875 -7.503906 3.921875 -6.921875 C 3.921875 -6.441406 3.640625 -5.960938 3.078125 -5.484375 C 1.960938 -4.722656 1.191406 -4.34375 0.765625 -4.34375 C 0.578125 -4.34375 0.425781 -4.394531 0.3125 -4.5 C 0.289062 -4.375 0.269531 -4.257812 0.25 -4.15625 C 0.238281 -4.050781 0.234375 -3.953125 0.234375 -3.859375 C 0.234375 -3.710938 0.253906 -3.585938 0.296875 -3.484375 C 0.492188 -3.054688 0.84375 -2.84375 1.34375 -2.84375 C 2.300781 -2.84375 3.539062 -3.195312 5.0625 -3.90625 C 6.539062 -4.59375 7.726562 -5.269531 8.625 -5.9375 C 8.675781 -5.96875 8.707031 -5.984375 8.71875 -5.984375 C 8.8125 -5.984375 8.863281 -5.921875 8.875 -5.796875 C 8.875 -5.753906 8.851562 -5.71875 8.8125 -5.6875 C 7.988281 -4.894531 6.820312 -4.101562 5.3125 -3.3125 C 3.8125 -2.53125 2.40625 -2.070312 1.09375 -1.9375 Z M 1.09375 -1.9375 "/></g></g></g><g fill="#000000" fill-opacity="1"><g transform="translate(393.536362, 160.661385)"><g><path d="M 1.765625 -7.140625 C 1.773438 -7.140625 1.804688 -7.15625 1.859375 -7.1875 C 2.609375 -7.726562 3.550781 -8.726562 4.6875 -10.1875 C 5.257812 -10.914062 5.800781 -11.65625 6.3125 -12.40625 C 6.820312 -13.164062 7.304688 -13.929688 7.765625 -14.703125 C 8.484375 -16.023438 8.84375 -16.9375 8.84375 -17.4375 C 8.84375 -17.726562 8.753906 -17.875 8.578125 -17.875 C 8.296875 -17.875 7.863281 -17.46875 7.28125 -16.65625 C 6.28125 -15.300781 5.34375 -13.898438 4.46875 -12.453125 C 3.59375 -11.003906 2.785156 -9.515625 2.046875 -7.984375 L 1.703125 -7.21875 L 1.703125 -7.1875 C 1.703125 -7.15625 1.722656 -7.140625 1.765625 -7.140625 Z M 0.5 1.359375 L 0.453125 1.359375 C -0.0742188 1.273438 -0.484375 1.03125 -0.765625 0.625 C -1.046875 0.195312 -1.1875 -0.25 -1.1875 -0.71875 C -1.1875 -2.226562 -0.738281 -4.101562 0.15625 -6.34375 C 1.019531 -8.550781 2.0625 -10.71875 3.28125 -12.84375 C 3.882812 -13.882812 4.460938 -14.8125 5.015625 -15.625 C 5.578125 -16.4375 6.113281 -17.128906 6.625 -17.703125 C 7.289062 -18.460938 7.867188 -18.84375 8.359375 -18.84375 L 8.640625 -18.84375 C 8.796875 -18.84375 8.984375 -18.769531 9.203125 -18.625 C 9.460938 -18.394531 9.59375 -18.070312 9.59375 -17.65625 C 9.59375 -17.082031 9.425781 -16.40625 9.09375 -15.625 C 8.800781 -14.957031 8.363281 -14.160156 7.78125 -13.234375 C 7.195312 -12.304688 6.460938 -11.25 5.578125 -10.0625 C 4.953125 -9.207031 4.304688 -8.445312 3.640625 -7.78125 C 2.984375 -7.113281 2.320312 -6.523438 1.65625 -6.015625 C 1.539062 -5.941406 1.4375 -5.859375 1.34375 -5.765625 C 1.082031 -5.503906 0.757812 -4.722656 0.375 -3.421875 C 0.269531 -3.078125 0.179688 -2.6875 0.109375 -2.25 C 0.0351562 -1.8125 -0.0234375 -1.332031 -0.078125 -0.8125 L -0.09375 -0.546875 C -0.09375 0.105469 0.15625 0.457031 0.65625 0.5 C 1.21875 0.488281 1.972656 0.148438 2.921875 -0.515625 C 3.515625 -0.941406 4.238281 -1.53125 5.09375 -2.28125 C 5.945312 -3.03125 6.929688 -3.929688 8.046875 -4.984375 C 8.222656 -5.171875 8.378906 -5.328125 8.515625 -5.453125 C 8.648438 -5.585938 8.75 -5.679688 8.8125 -5.734375 L 8.84375 -5.734375 C 9 -5.898438 9.101562 -5.984375 9.15625 -5.984375 C 9.175781 -5.984375 9.1875 -5.976562 9.1875 -5.96875 C 9.195312 -5.957031 9.207031 -5.953125 9.21875 -5.953125 C 9.226562 -5.941406 9.238281 -5.929688 9.25 -5.921875 C 9.257812 -5.921875 9.269531 -5.914062 9.28125 -5.90625 C 9.320312 -5.882812 9.34375 -5.847656 9.34375 -5.796875 L 9.3125 -5.734375 L 9.078125 -5.484375 C 8.785156 -5.128906 8.421875 -4.734375 7.984375 -4.296875 C 7.554688 -3.859375 7.066406 -3.363281 6.515625 -2.8125 C 3.691406 -0.03125 1.6875 1.359375 0.5 1.359375 Z M 0.5 1.359375 "/></g></g></g><g fill="#000000" fill-opacity="1"><g transform="translate(402.332897, 160.661385)"><g><path d="M -2.34375 2.546875 L -2.375 2.546875 C -2.488281 2.546875 -2.597656 2.507812 -2.703125 2.4375 C -2.796875 2.351562 -2.84375 2.234375 -2.84375 2.078125 C -2.84375 1.535156 -2.296875 -0.128906 -1.203125 -2.921875 C -0.578125 -4.546875 0.113281 -6.175781 0.875 -7.8125 C 1.632812 -9.457031 2.457031 -11.109375 3.34375 -12.765625 C 4.71875 -15.347656 5.859375 -17.191406 6.765625 -18.296875 C 6.984375 -18.484375 7.203125 -18.578125 7.421875 -18.578125 C 7.679688 -18.578125 7.894531 -18.472656 8.0625 -18.265625 C 8.144531 -18.140625 8.1875 -18.007812 8.1875 -17.875 C 8.1875 -17.832031 8.1875 -17.789062 8.1875 -17.75 C 8.1875 -17.71875 8.171875 -17.679688 8.140625 -17.640625 C 7.921875 -17.171875 7.660156 -16.820312 7.359375 -16.59375 C 7.316406 -16.570312 7.273438 -16.539062 7.234375 -16.5 C 7.203125 -16.46875 7.164062 -16.4375 7.125 -16.40625 C 6.84375 -16.144531 6.113281 -15.023438 4.9375 -13.046875 C 3.925781 -11.347656 3.085938 -9.863281 2.421875 -8.59375 C 1.753906 -7.332031 1.253906 -6.285156 0.921875 -5.453125 C 1.109375 -5.671875 1.347656 -5.921875 1.640625 -6.203125 C 1.941406 -6.484375 2.300781 -6.8125 2.71875 -7.1875 C 4.71875 -8.957031 6.289062 -9.84375 7.4375 -9.84375 C 7.75 -9.84375 7.976562 -9.769531 8.125 -9.625 C 8.269531 -9.488281 8.347656 -9.328125 8.359375 -9.140625 C 8.359375 -8.984375 8.285156 -8.832031 8.140625 -8.6875 C 8.046875 -8.601562 7.945312 -8.5625 7.84375 -8.5625 C 7.707031 -8.5625 7.578125 -8.613281 7.453125 -8.71875 C 7.304688 -8.820312 7.203125 -8.875 7.140625 -8.875 L 7.046875 -8.859375 C 6.535156 -8.703125 5.890625 -8.363281 5.109375 -7.84375 C 4.328125 -7.332031 3.414062 -6.640625 2.375 -5.765625 C 0.96875 -4.554688 0.265625 -3.820312 0.265625 -3.5625 C 0.265625 -3.457031 0.359375 -3.40625 0.546875 -3.40625 C 1.242188 -3.5 2.035156 -3.628906 2.921875 -3.796875 C 3.816406 -3.972656 4.800781 -4.191406 5.875 -4.453125 C 6.957031 -4.722656 7.953125 -4.984375 8.859375 -5.234375 C 9.765625 -5.492188 10.582031 -5.734375 11.3125 -5.953125 L 11.4375 -5.984375 C 11.570312 -5.984375 11.660156 -5.941406 11.703125 -5.859375 C 11.703125 -5.679688 11.609375 -5.5625 11.421875 -5.5 C 9.765625 -4.925781 8.085938 -4.410156 6.390625 -3.953125 C 4.703125 -3.503906 2.992188 -3.109375 1.265625 -2.765625 L 1.125 -2.71875 C 0.65625 -2.65625 0.320312 -2.578125 0.125 -2.484375 C -0.183594 -2.335938 -0.632812 -1.445312 -1.21875 0.1875 L -1.84375 1.6875 C -1.851562 1.738281 -1.867188 1.789062 -1.890625 1.84375 C -1.910156 1.90625 -1.925781 1.972656 -1.9375 2.046875 C -1.96875 2.171875 -2.007812 2.28125 -2.0625 2.375 C -2.125 2.488281 -2.21875 2.546875 -2.34375 2.546875 Z M -2.34375 2.546875 "/></g></g></g><g fill="#000000" fill-opacity="1"><g transform="translate(413.508486, 160.661385)"><g><path d="M -7 10.734375 C -6.300781 10.710938 -5.675781 10.421875 -5.125 9.859375 C -3.71875 8.515625 -2.53125 7 -1.5625 5.3125 C -0.238281 3.113281 0.738281 1.253906 1.375 -0.265625 C -2.625 2.378906 -5.4375 5.128906 -7.0625 7.984375 C -7.457031 8.703125 -7.65625 9.375 -7.65625 10 C -7.65625 10.007812 -7.65625 10.046875 -7.65625 10.109375 C -7.65625 10.179688 -7.648438 10.269531 -7.640625 10.375 C -7.628906 10.59375 -7.414062 10.710938 -7 10.734375 Z M -7.046875 11.359375 C -7.773438 11.359375 -8.179688 11.078125 -8.265625 10.515625 C -8.273438 10.441406 -8.28125 10.363281 -8.28125 10.28125 C -8.289062 10.195312 -8.296875 10.117188 -8.296875 10.046875 C -8.296875 9.378906 -8.082031 8.628906 -7.65625 7.796875 C -7.113281 6.828125 -6.5 5.921875 -5.8125 5.078125 C -5.125 4.234375 -4.367188 3.445312 -3.546875 2.71875 C -2.710938 2 -1.859375 1.300781 -0.984375 0.625 C -0.117188 -0.0390625 0.757812 -0.679688 1.65625 -1.296875 C 1.925781 -1.484375 2.117188 -1.6875 2.234375 -1.90625 L 3.953125 -4.953125 L 3.921875 -4.984375 L 3.5 -4.640625 C 1.394531 -2.648438 0.0429688 -1.65625 -0.546875 -1.65625 C -0.710938 -1.65625 -0.867188 -1.71875 -1.015625 -1.84375 C -1.210938 -2.03125 -1.3125 -2.289062 -1.3125 -2.625 C -1.3125 -3.34375 -1.054688 -4.148438 -0.546875 -5.046875 C -0.0859375 -5.828125 0.359375 -6.425781 0.796875 -6.84375 C 1.085938 -7.09375 1.335938 -7.21875 1.546875 -7.21875 C 1.742188 -7.21875 1.84375 -7.09375 1.84375 -6.84375 C 1.84375 -6.675781 1.707031 -6.398438 1.4375 -6.015625 C 0.757812 -5.140625 0.210938 -4.179688 -0.203125 -3.140625 C -0.242188 -3.046875 -0.265625 -2.898438 -0.265625 -2.703125 L -0.265625 -2.515625 C 0.335938 -2.753906 1.140625 -3.296875 2.140625 -4.140625 C 2.367188 -4.328125 2.695312 -4.613281 3.125 -5 C 3.5625 -5.382812 4.097656 -5.878906 4.734375 -6.484375 C 4.910156 -6.648438 5.066406 -6.734375 5.203125 -6.734375 C 5.242188 -6.734375 5.289062 -6.71875 5.34375 -6.6875 C 5.394531 -6.664062 5.441406 -6.601562 5.484375 -6.5 C 5.492188 -6.445312 5.5 -6.398438 5.5 -6.359375 C 5.507812 -6.316406 5.515625 -6.285156 5.515625 -6.265625 C 5.492188 -6.179688 5.390625 -5.957031 5.203125 -5.59375 C 5.015625 -5.238281 4.75 -4.738281 4.40625 -4.09375 C 3.988281 -3.363281 3.757812 -2.894531 3.71875 -2.6875 C 5.726562 -4.070312 7.820312 -5.160156 10 -5.953125 L 10.265625 -6.015625 C 10.335938 -6.003906 10.375 -5.953125 10.375 -5.859375 C 10.375 -5.773438 10.328125 -5.707031 10.234375 -5.65625 L 8.9375 -5.140625 C 8.320312 -4.867188 7.535156 -4.429688 6.578125 -3.828125 C 5.628906 -3.234375 4.523438 -2.484375 3.265625 -1.578125 C 3.078125 -1.429688 2.9375 -1.265625 2.84375 -1.078125 C 2.707031 -0.816406 2.570312 -0.554688 2.4375 -0.296875 C 2.300781 -0.046875 2.175781 0.203125 2.0625 0.453125 C 0.0195312 4.722656 -2.242188 8.046875 -4.734375 10.421875 C -5.054688 10.722656 -5.472656 10.96875 -5.984375 11.15625 C -6.328125 11.289062 -6.679688 11.359375 -7.046875 11.359375 Z M 3.421875 -8.734375 C 3.242188 -8.734375 3.15625 -8.816406 3.15625 -8.984375 C 3.15625 -9.085938 3.5 -9.398438 4.1875 -9.921875 C 5.09375 -10.679688 5.617188 -11.0625 5.765625 -11.0625 L 5.9375 -11.078125 C 6.0625 -11.078125 6.160156 -11.03125 6.234375 -10.9375 C 6.316406 -10.851562 6.359375 -10.773438 6.359375 -10.703125 C 6.359375 -10.628906 6.332031 -10.566406 6.28125 -10.515625 C 6.25 -10.503906 6.015625 -10.359375 5.578125 -10.078125 C 5.148438 -9.796875 4.519531 -9.390625 3.6875 -8.859375 C 3.601562 -8.796875 3.515625 -8.753906 3.421875 -8.734375 Z M 3.421875 -8.734375 "/></g></g></g><g fill="#000000" fill-opacity="1"><g transform="translate(423.564523, 160.661385)"><g><path d="M -1.015625 -0.9375 C -1.191406 -0.9375 -1.3125 -0.988281 -1.375 -1.09375 C -1.46875 -1.1875 -1.515625 -1.320312 -1.515625 -1.5 C -1.515625 -1.882812 -1.160156 -2.945312 -0.453125 -4.6875 L 0.125 -6.21875 C 0.3125 -6.632812 0.578125 -7.015625 0.921875 -7.359375 C 1.035156 -7.492188 1.175781 -7.5625 1.34375 -7.5625 C 1.644531 -7.53125 1.796875 -7.375 1.796875 -7.09375 C 1.796875 -6.9375 1.550781 -6.335938 1.0625 -5.296875 C 1.269531 -5.378906 1.421875 -5.507812 1.515625 -5.6875 C 3.203125 -7.5 4.617188 -8.617188 5.765625 -9.046875 C 5.816406 -9.054688 5.863281 -9.0625 5.90625 -9.0625 C 5.957031 -9.070312 6.003906 -9.078125 6.046875 -9.078125 C 6.222656 -9.078125 6.390625 -9.03125 6.546875 -8.9375 C 6.765625 -8.78125 6.875 -8.570312 6.875 -8.3125 L 6.875 -8.28125 C 6.757812 -7.582031 6.5 -6.875 6.09375 -6.15625 C 5.988281 -5.945312 5.863281 -5.671875 5.71875 -5.328125 C 5.582031 -4.984375 5.421875 -4.582031 5.234375 -4.125 C 5.160156 -3.914062 5.101562 -3.742188 5.0625 -3.609375 C 5.03125 -3.472656 5.015625 -3.359375 5.015625 -3.265625 C 5.015625 -3.171875 5.039062 -3.101562 5.09375 -3.0625 C 5.320312 -3.101562 5.523438 -3.207031 5.703125 -3.375 L 7.28125 -5.0625 C 7.46875 -5.257812 7.640625 -5.421875 7.796875 -5.546875 C 7.921875 -5.648438 8.066406 -5.703125 8.234375 -5.703125 C 8.273438 -5.703125 8.328125 -5.691406 8.390625 -5.671875 C 8.460938 -5.660156 8.546875 -5.632812 8.640625 -5.59375 C 8.828125 -5.519531 8.941406 -5.179688 8.984375 -4.578125 C 8.992188 -4.390625 9.015625 -4.207031 9.046875 -4.03125 C 9.078125 -3.851562 9.125 -3.675781 9.1875 -3.5 C 9.289062 -3.15625 9.5 -2.875 9.8125 -2.65625 C 10.0625 -2.539062 10.332031 -2.484375 10.625 -2.484375 C 10.925781 -2.484375 11.34375 -2.578125 11.875 -2.765625 C 12.425781 -2.960938 12.96875 -3.28125 13.5 -3.71875 C 14.082031 -4.195312 14.582031 -4.625 15 -5 C 15.425781 -5.382812 15.757812 -5.703125 16 -5.953125 L 16.015625 -5.984375 C 16.015625 -5.984375 16.019531 -5.976562 16.03125 -5.96875 C 16.039062 -5.957031 16.046875 -5.953125 16.046875 -5.953125 C 16.054688 -5.953125 16.0625 -5.953125 16.0625 -5.953125 C 16.0625 -5.953125 16.066406 -5.953125 16.078125 -5.953125 C 16.085938 -5.941406 16.09375 -5.9375 16.09375 -5.9375 C 16.09375 -5.925781 16.097656 -5.914062 16.109375 -5.90625 C 16.117188 -5.90625 16.125 -5.890625 16.125 -5.859375 C 14.738281 -4.097656 13.265625 -2.875 11.703125 -2.1875 C 11.296875 -2.007812 10.890625 -1.921875 10.484375 -1.921875 C 10.117188 -1.921875 9.773438 -1.988281 9.453125 -2.125 C 8.671875 -2.550781 8.28125 -3.488281 8.28125 -4.9375 C 7.988281 -4.75 7.609375 -4.382812 7.140625 -3.84375 C 6.992188 -3.664062 6.84375 -3.492188 6.6875 -3.328125 C 6.53125 -3.160156 6.378906 -3.003906 6.234375 -2.859375 C 5.703125 -2.347656 5.269531 -2.09375 4.9375 -2.09375 C 4.882812 -2.09375 4.816406 -2.101562 4.734375 -2.125 C 4.660156 -2.144531 4.566406 -2.164062 4.453125 -2.1875 C 4.191406 -2.257812 4.0625 -2.554688 4.0625 -3.078125 C 4.0625 -3.628906 4.378906 -4.648438 5.015625 -6.140625 C 5.398438 -7.078125 5.59375 -7.582031 5.59375 -7.65625 C 5.65625 -7.75 5.6875 -7.847656 5.6875 -7.953125 C 5.6875 -7.992188 5.675781 -8.023438 5.65625 -8.046875 C 5.550781 -8.015625 5.40625 -7.925781 5.21875 -7.78125 L 5.140625 -7.71875 C 3.710938 -6.625 2.472656 -5.332031 1.421875 -3.84375 C 1.328125 -3.707031 1.144531 -3.441406 0.875 -3.046875 C 0.613281 -2.648438 0.269531 -2.117188 -0.15625 -1.453125 C -0.414062 -1.109375 -0.703125 -0.9375 -1.015625 -0.9375 Z M -1.015625 -0.9375 "/></g></g></g><g fill="#000000" fill-opacity="1"><g transform="translate(439.278324, 160.661385)"><g/></g></g><g fill="#000000" fill-opacity="1"><g transform="translate(446.655413, 160.661385)"><g><path d="M -0.046875 -1.125 C -0.773438 -1.144531 -1.140625 -1.4375 -1.140625 -2 C -1.140625 -2.125 -1.117188 -2.265625 -1.078125 -2.421875 C -0.546875 -4.796875 0.03125 -6.34375 0.65625 -7.0625 C 0.726562 -7.125 0.84375 -7.15625 1 -7.15625 C 1.09375 -7.15625 1.1875 -7.128906 1.28125 -7.078125 C 1.375 -7.023438 1.441406 -6.957031 1.484375 -6.875 C 1.535156 -6.8125 1.5625 -6.738281 1.5625 -6.65625 C 1.5625 -6.5625 1.359375 -6.023438 0.953125 -5.046875 C 0.503906 -3.984375 0.1875 -3.019531 0 -2.15625 L 0 -2.125 C 0 -2.082031 0.015625 -2.0625 0.046875 -2.0625 L 0.0625 -2.0625 L 0.140625 -2.078125 L 1.65625 -3.421875 C 3.488281 -5.128906 5.132812 -6.457031 6.59375 -7.40625 C 6.65625 -7.425781 6.722656 -7.4375 6.796875 -7.4375 C 6.804688 -7.4375 6.820312 -7.4375 6.84375 -7.4375 C 6.863281 -7.4375 6.890625 -7.4375 6.921875 -7.4375 C 6.972656 -7.4375 7.019531 -7.410156 7.0625 -7.359375 C 7.070312 -7.328125 7.078125 -7.296875 7.078125 -7.265625 C 7.085938 -7.242188 7.09375 -7.222656 7.09375 -7.203125 C 7.09375 -7.097656 7.066406 -7.015625 7.015625 -6.953125 C 5.941406 -6.222656 4.960938 -5.445312 4.078125 -4.625 C 3.785156 -4.351562 3.492188 -4.078125 3.203125 -3.796875 C 2.910156 -3.515625 2.613281 -3.242188 2.3125 -2.984375 L 0.734375 -1.5 L 0.5625 -1.375 C 0.382812 -1.207031 0.179688 -1.125 -0.046875 -1.125 Z M -0.046875 -1.125 "/></g></g></g><g fill="#000000" fill-opacity="1"><g transform="translate(454.23242, 160.661385)"><g><path d="M -7 10.734375 C -6.300781 10.710938 -5.675781 10.421875 -5.125 9.859375 C -3.71875 8.515625 -2.53125 7 -1.5625 5.3125 C -0.238281 3.113281 0.738281 1.253906 1.375 -0.265625 C -2.625 2.378906 -5.4375 5.128906 -7.0625 7.984375 C -7.457031 8.703125 -7.65625 9.375 -7.65625 10 C -7.65625 10.007812 -7.65625 10.046875 -7.65625 10.109375 C -7.65625 10.179688 -7.648438 10.269531 -7.640625 10.375 C -7.628906 10.59375 -7.414062 10.710938 -7 10.734375 Z M -7.046875 11.359375 C -7.773438 11.359375 -8.179688 11.078125 -8.265625 10.515625 C -8.273438 10.441406 -8.28125 10.363281 -8.28125 10.28125 C -8.289062 10.195312 -8.296875 10.117188 -8.296875 10.046875 C -8.296875 9.378906 -8.082031 8.628906 -7.65625 7.796875 C -7.113281 6.828125 -6.5 5.921875 -5.8125 5.078125 C -5.125 4.234375 -4.367188 3.445312 -3.546875 2.71875 C -2.710938 2 -1.859375 1.300781 -0.984375 0.625 C -0.117188 -0.0390625 0.757812 -0.679688 1.65625 -1.296875 C 1.925781 -1.484375 2.117188 -1.6875 2.234375 -1.90625 L 3.953125 -4.953125 L 3.921875 -4.984375 L 3.5 -4.640625 C 1.394531 -2.648438 0.0429688 -1.65625 -0.546875 -1.65625 C -0.710938 -1.65625 -0.867188 -1.71875 -1.015625 -1.84375 C -1.210938 -2.03125 -1.3125 -2.289062 -1.3125 -2.625 C -1.3125 -3.34375 -1.054688 -4.148438 -0.546875 -5.046875 C -0.0859375 -5.828125 0.359375 -6.425781 0.796875 -6.84375 C 1.085938 -7.09375 1.335938 -7.21875 1.546875 -7.21875 C 1.742188 -7.21875 1.84375 -7.09375 1.84375 -6.84375 C 1.84375 -6.675781 1.707031 -6.398438 1.4375 -6.015625 C 0.757812 -5.140625 0.210938 -4.179688 -0.203125 -3.140625 C -0.242188 -3.046875 -0.265625 -2.898438 -0.265625 -2.703125 L -0.265625 -2.515625 C 0.335938 -2.753906 1.140625 -3.296875 2.140625 -4.140625 C 2.367188 -4.328125 2.695312 -4.613281 3.125 -5 C 3.5625 -5.382812 4.097656 -5.878906 4.734375 -6.484375 C 4.910156 -6.648438 5.066406 -6.734375 5.203125 -6.734375 C 5.242188 -6.734375 5.289062 -6.71875 5.34375 -6.6875 C 5.394531 -6.664062 5.441406 -6.601562 5.484375 -6.5 C 5.492188 -6.445312 5.5 -6.398438 5.5 -6.359375 C 5.507812 -6.316406 5.515625 -6.285156 5.515625 -6.265625 C 5.492188 -6.179688 5.390625 -5.957031 5.203125 -5.59375 C 5.015625 -5.238281 4.75 -4.738281 4.40625 -4.09375 C 3.988281 -3.363281 3.757812 -2.894531 3.71875 -2.6875 C 5.726562 -4.070312 7.820312 -5.160156 10 -5.953125 L 10.265625 -6.015625 C 10.335938 -6.003906 10.375 -5.953125 10.375 -5.859375 C 10.375 -5.773438 10.328125 -5.707031 10.234375 -5.65625 L 8.9375 -5.140625 C 8.320312 -4.867188 7.535156 -4.429688 6.578125 -3.828125 C 5.628906 -3.234375 4.523438 -2.484375 3.265625 -1.578125 C 3.078125 -1.429688 2.9375 -1.265625 2.84375 -1.078125 C 2.707031 -0.816406 2.570312 -0.554688 2.4375 -0.296875 C 2.300781 -0.046875 2.175781 0.203125 2.0625 0.453125 C 0.0195312 4.722656 -2.242188 8.046875 -4.734375 10.421875 C -5.054688 10.722656 -5.472656 10.96875 -5.984375 11.15625 C -6.328125 11.289062 -6.679688 11.359375 -7.046875 11.359375 Z M 3.421875 -8.734375 C 3.242188 -8.734375 3.15625 -8.816406 3.15625 -8.984375 C 3.15625 -9.085938 3.5 -9.398438 4.1875 -9.921875 C 5.09375 -10.679688 5.617188 -11.0625 5.765625 -11.0625 L 5.9375 -11.078125 C 6.0625 -11.078125 6.160156 -11.03125 6.234375 -10.9375 C 6.316406 -10.851562 6.359375 -10.773438 6.359375 -10.703125 C 6.359375 -10.628906 6.332031 -10.566406 6.28125 -10.515625 C 6.25 -10.503906 6.015625 -10.359375 5.578125 -10.078125 C 5.148438 -9.796875 4.519531 -9.390625 3.6875 -8.859375 C 3.601562 -8.796875 3.515625 -8.753906 3.421875 -8.734375 Z M 3.421875 -8.734375 "/></g></g></g><g fill="#000000" fill-opacity="1"><g transform="translate(464.288457, 160.661385)"><g><path d="M -3.9375 10.140625 C -3.363281 10.140625 -2.570312 9.679688 -1.5625 8.765625 C -1.3125 8.535156 -1.09375 8.320312 -0.90625 8.125 C -0.71875 7.9375 -0.554688 7.757812 -0.421875 7.59375 C 2.398438 4.320312 4.253906 1.074219 5.140625 -2.140625 L 5.140625 -2.21875 C 5.140625 -2.28125 5.117188 -2.3125 5.078125 -2.3125 L 5.015625 -2.296875 C 4.523438 -2.046875 3.972656 -1.695312 3.359375 -1.25 C 2.742188 -0.8125 2.082031 -0.273438 1.375 0.359375 C 0.664062 1.015625 -0.0234375 1.710938 -0.703125 2.453125 C -1.378906 3.191406 -2.039062 3.972656 -2.6875 4.796875 C -4.03125 6.660156 -4.703125 8.113281 -4.703125 9.15625 C -4.703125 9.8125 -4.445312 10.140625 -3.9375 10.140625 Z M -3.984375 10.734375 C -4.273438 10.734375 -4.550781 10.632812 -4.8125 10.4375 C -5.113281 10.132812 -5.265625 9.722656 -5.265625 9.203125 C -5.265625 7.921875 -4.535156 6.328125 -3.078125 4.421875 C -0.179688 0.796875 2.535156 -1.691406 5.078125 -3.046875 C 5.234375 -3.117188 5.3125 -3.207031 5.3125 -3.3125 C 5.332031 -3.382812 5.34375 -3.441406 5.34375 -3.484375 C 5.34375 -3.535156 5.34375 -3.582031 5.34375 -3.625 C 5.34375 -4.257812 5.113281 -4.578125 4.65625 -4.578125 C 4.34375 -4.578125 3.953125 -4.453125 3.484375 -4.203125 L 3 -4 L 2.859375 -3.921875 C 2.753906 -3.847656 2.648438 -3.8125 2.546875 -3.8125 C 2.429688 -3.8125 2.335938 -3.851562 2.265625 -3.9375 C 2.179688 -4.039062 2.140625 -4.148438 2.140625 -4.265625 C 2.140625 -4.410156 2.488281 -5.015625 3.1875 -6.078125 C 3.25 -6.179688 3.304688 -6.273438 3.359375 -6.359375 C 3.421875 -6.453125 3.46875 -6.523438 3.5 -6.578125 C 3.601562 -6.722656 3.671875 -6.894531 3.703125 -7.09375 L 3.453125 -7.046875 C 3.003906 -6.921875 2.550781 -6.71875 2.09375 -6.4375 C 1.40625 -6 1 -5.671875 0.875 -5.453125 C 0.851562 -5.421875 0.820312 -5.382812 0.78125 -5.34375 C 0.75 -5.300781 0.722656 -5.257812 0.703125 -5.21875 C 0.648438 -5.132812 0.550781 -5.09375 0.40625 -5.09375 C 0.0703125 -5.09375 -0.09375 -5.273438 -0.09375 -5.640625 C -0.09375 -6.015625 0.269531 -6.421875 1 -6.859375 C 2.132812 -7.523438 3.0625 -7.890625 3.78125 -7.953125 C 4.070312 -7.953125 4.296875 -7.851562 4.453125 -7.65625 C 4.578125 -7.519531 4.640625 -7.363281 4.640625 -7.1875 C 4.640625 -7.113281 4.625 -7.023438 4.59375 -6.921875 C 4.4375 -6.398438 4.101562 -5.765625 3.59375 -5.015625 C 4.039062 -5.179688 4.421875 -5.265625 4.734375 -5.265625 C 5.054688 -5.265625 5.3125 -5.195312 5.5 -5.0625 C 5.863281 -4.894531 6.046875 -4.441406 6.046875 -3.703125 L 6.046875 -3.546875 C 7.066406 -4.117188 8.085938 -4.597656 9.109375 -4.984375 C 10.140625 -5.378906 11.164062 -5.691406 12.1875 -5.921875 L 12.28125 -5.9375 C 12.363281 -5.9375 12.40625 -5.894531 12.40625 -5.8125 C 12.40625 -5.75 12.359375 -5.710938 12.265625 -5.703125 C 11.960938 -5.617188 11.582031 -5.488281 11.125 -5.3125 C 10.675781 -5.132812 10.140625 -4.910156 9.515625 -4.640625 C 7.203125 -3.640625 6.003906 -2.976562 5.921875 -2.65625 C 5.484375 -0.550781 4.695312 1.394531 3.5625 3.1875 C 2.289062 5.164062 1.097656 6.769531 -0.015625 8 C -1.128906 9.226562 -2.171875 10.066406 -3.140625 10.515625 C -3.460938 10.660156 -3.742188 10.734375 -3.984375 10.734375 Z M -3.984375 10.734375 "/></g></g></g><g fill="#000000" fill-opacity="1"><g transform="translate(476.243743, 160.661385)"><g><path d="M -0.796875 -1.875 C -0.960938 -1.875 -1.125 -1.914062 -1.28125 -2 C -1.46875 -2.144531 -1.5625 -2.316406 -1.5625 -2.515625 C -1.5625 -2.753906 -1.5 -3.019531 -1.375 -3.3125 C -1.082031 -4.007812 -0.75 -4.679688 -0.375 -5.328125 C 0 -5.972656 0.410156 -6.597656 0.859375 -7.203125 C 1.097656 -7.503906 1.316406 -7.664062 1.515625 -7.6875 C 1.691406 -7.6875 1.832031 -7.609375 1.9375 -7.453125 C 2.007812 -7.347656 2.046875 -7.257812 2.046875 -7.1875 L 2.015625 -7.0625 C 1.898438 -6.769531 1.757812 -6.46875 1.59375 -6.15625 C 1.4375 -5.851562 1.257812 -5.546875 1.0625 -5.234375 L 0.578125 -4.40625 C 0.492188 -4.28125 0.441406 -4.097656 0.421875 -3.859375 C 0.597656 -4.003906 0.796875 -4.179688 1.015625 -4.390625 C 1.234375 -4.597656 1.472656 -4.828125 1.734375 -5.078125 L 3.0625 -6.296875 C 3.726562 -6.898438 4.164062 -7.203125 4.375 -7.203125 C 4.507812 -7.203125 4.664062 -7.140625 4.84375 -7.015625 C 5 -6.898438 5.09375 -6.6875 5.125 -6.375 L 5.078125 -5.234375 C 5.078125 -4.898438 5.097656 -4.519531 5.140625 -4.09375 C 5.191406 -3.40625 5.578125 -3.0625 6.296875 -3.0625 C 6.566406 -3.0625 6.925781 -3.15625 7.375 -3.34375 C 8.082031 -3.644531 9.078125 -4.34375 10.359375 -5.4375 C 10.742188 -5.78125 10.972656 -5.953125 11.046875 -5.953125 C 11.117188 -5.953125 11.15625 -5.914062 11.15625 -5.84375 C 11.15625 -5.820312 11.144531 -5.785156 11.125 -5.734375 C 9.832031 -4.242188 8.554688 -3.207031 7.296875 -2.625 C 6.890625 -2.414062 6.488281 -2.3125 6.09375 -2.3125 C 5.757812 -2.3125 5.460938 -2.378906 5.203125 -2.515625 C 4.734375 -2.785156 4.445312 -3.175781 4.34375 -3.6875 C 4.300781 -3.882812 4.269531 -4.078125 4.25 -4.265625 C 4.238281 -4.460938 4.234375 -4.660156 4.234375 -4.859375 L 4.234375 -5.1875 L 4.28125 -6 L 4.296875 -6.125 C 3.867188 -5.832031 3.144531 -5.148438 2.125 -4.078125 C 1.625 -3.554688 1.082031 -3.015625 0.5 -2.453125 C 0.394531 -2.347656 0.269531 -2.253906 0.125 -2.171875 C -0.0195312 -2.097656 -0.179688 -2.023438 -0.359375 -1.953125 C -0.484375 -1.898438 -0.628906 -1.875 -0.796875 -1.875 Z M -0.796875 -1.875 "/></g></g></g><g fill="#000000" fill-opacity="1"><g transform="translate(486.999495, 160.661385)"><g><path d="M 0.28125 -4.734375 C 0.332031 -4.734375 0.425781 -4.78125 0.5625 -4.875 C 1.3125 -5.320312 1.878906 -5.691406 2.265625 -5.984375 C 2.128906 -6.148438 1.972656 -6.234375 1.796875 -6.234375 C 1.742188 -6.234375 1.675781 -6.222656 1.59375 -6.203125 C 1.0625 -5.972656 0.609375 -5.546875 0.234375 -4.921875 L 0.234375 -4.8125 C 0.234375 -4.757812 0.25 -4.734375 0.28125 -4.734375 Z M 3.078125 -2.515625 C 3.035156 -2.515625 2.976562 -2.515625 2.90625 -2.515625 C 2.832031 -2.515625 2.742188 -2.523438 2.640625 -2.546875 C 2.421875 -2.554688 2.234375 -2.710938 2.078125 -3.015625 C 1.992188 -3.210938 1.953125 -3.421875 1.953125 -3.640625 C 1.953125 -4.078125 2.082031 -4.546875 2.34375 -5.046875 C 2.15625 -4.910156 1.953125 -4.773438 1.734375 -4.640625 C 1.515625 -4.503906 1.269531 -4.363281 1 -4.21875 C 0.207031 -3.769531 -0.285156 -3.546875 -0.484375 -3.546875 C -0.597656 -3.546875 -0.71875 -3.582031 -0.84375 -3.65625 C -0.945312 -3.738281 -1 -3.847656 -1 -3.984375 C -1 -4.085938 -0.96875 -4.207031 -0.90625 -4.34375 C -0.664062 -5.175781 -0.148438 -5.9375 0.640625 -6.625 C 0.984375 -6.90625 1.363281 -7.046875 1.78125 -7.046875 C 1.789062 -7.046875 1.828125 -7.046875 1.890625 -7.046875 C 1.960938 -7.046875 2.0625 -7.035156 2.1875 -7.015625 C 2.425781 -7.003906 2.648438 -6.835938 2.859375 -6.515625 L 2.90625 -6.484375 C 2.9375 -6.484375 2.984375 -6.507812 3.046875 -6.5625 C 3.109375 -6.613281 3.1875 -6.640625 3.28125 -6.640625 C 3.414062 -6.640625 3.515625 -6.609375 3.578125 -6.546875 C 3.660156 -6.460938 3.703125 -6.378906 3.703125 -6.296875 C 3.703125 -6.253906 3.679688 -6.171875 3.640625 -6.046875 C 3.597656 -5.929688 3.523438 -5.78125 3.421875 -5.59375 C 2.953125 -4.738281 2.71875 -4.101562 2.71875 -3.6875 C 2.71875 -3.351562 2.882812 -3.1875 3.21875 -3.1875 C 3.539062 -3.1875 4.019531 -3.296875 4.65625 -3.515625 C 5.613281 -3.878906 6.578125 -4.320312 7.546875 -4.84375 C 8.023438 -5.09375 8.421875 -5.3125 8.734375 -5.5 C 9.054688 -5.6875 9.296875 -5.832031 9.453125 -5.9375 C 9.484375 -5.96875 9.523438 -5.984375 9.578125 -5.984375 C 9.679688 -5.984375 9.734375 -5.910156 9.734375 -5.765625 C 9.734375 -5.722656 9.71875 -5.679688 9.6875 -5.640625 C 9.414062 -5.421875 9.101562 -5.191406 8.75 -4.953125 C 8.394531 -4.710938 8 -4.46875 7.5625 -4.21875 C 6.664062 -3.695312 5.769531 -3.269531 4.875 -2.9375 C 4.195312 -2.65625 3.597656 -2.515625 3.078125 -2.515625 Z M 3.078125 -2.515625 "/></g></g></g><g fill="#000000" fill-opacity="1"><g transform="translate(496.495744, 160.661385)"><g><path d="M -1.015625 -0.9375 C -1.191406 -0.9375 -1.3125 -0.988281 -1.375 -1.09375 C -1.46875 -1.1875 -1.515625 -1.320312 -1.515625 -1.5 C -1.515625 -1.882812 -1.160156 -2.945312 -0.453125 -4.6875 L 0.125 -6.21875 C 0.3125 -6.632812 0.578125 -7.015625 0.921875 -7.359375 C 1.035156 -7.492188 1.175781 -7.5625 1.34375 -7.5625 C 1.644531 -7.53125 1.796875 -7.375 1.796875 -7.09375 C 1.796875 -6.9375 1.550781 -6.335938 1.0625 -5.296875 C 1.269531 -5.378906 1.421875 -5.507812 1.515625 -5.6875 C 3.203125 -7.5 4.617188 -8.617188 5.765625 -9.046875 C 5.816406 -9.054688 5.863281 -9.0625 5.90625 -9.0625 C 5.957031 -9.070312 6.003906 -9.078125 6.046875 -9.078125 C 6.222656 -9.078125 6.390625 -9.03125 6.546875 -8.9375 C 6.765625 -8.78125 6.875 -8.570312 6.875 -8.3125 L 6.875 -8.28125 C 6.757812 -7.582031 6.5 -6.875 6.09375 -6.15625 C 5.988281 -5.945312 5.863281 -5.671875 5.71875 -5.328125 C 5.582031 -4.984375 5.421875 -4.582031 5.234375 -4.125 C 5.160156 -3.914062 5.101562 -3.742188 5.0625 -3.609375 C 5.03125 -3.472656 5.015625 -3.359375 5.015625 -3.265625 C 5.015625 -3.171875 5.039062 -3.101562 5.09375 -3.0625 C 5.320312 -3.101562 5.523438 -3.207031 5.703125 -3.375 L 7.28125 -5.0625 C 7.46875 -5.257812 7.640625 -5.421875 7.796875 -5.546875 C 7.921875 -5.648438 8.066406 -5.703125 8.234375 -5.703125 C 8.273438 -5.703125 8.328125 -5.691406 8.390625 -5.671875 C 8.460938 -5.660156 8.546875 -5.632812 8.640625 -5.59375 C 8.828125 -5.519531 8.941406 -5.179688 8.984375 -4.578125 C 8.992188 -4.390625 9.015625 -4.207031 9.046875 -4.03125 C 9.078125 -3.851562 9.125 -3.675781 9.1875 -3.5 C 9.289062 -3.15625 9.5 -2.875 9.8125 -2.65625 C 10.0625 -2.539062 10.332031 -2.484375 10.625 -2.484375 C 10.925781 -2.484375 11.34375 -2.578125 11.875 -2.765625 C 12.425781 -2.960938 12.96875 -3.28125 13.5 -3.71875 C 14.082031 -4.195312 14.582031 -4.625 15 -5 C 15.425781 -5.382812 15.757812 -5.703125 16 -5.953125 L 16.015625 -5.984375 C 16.015625 -5.984375 16.019531 -5.976562 16.03125 -5.96875 C 16.039062 -5.957031 16.046875 -5.953125 16.046875 -5.953125 C 16.054688 -5.953125 16.0625 -5.953125 16.0625 -5.953125 C 16.0625 -5.953125 16.066406 -5.953125 16.078125 -5.953125 C 16.085938 -5.941406 16.09375 -5.9375 16.09375 -5.9375 C 16.09375 -5.925781 16.097656 -5.914062 16.109375 -5.90625 C 16.117188 -5.90625 16.125 -5.890625 16.125 -5.859375 C 14.738281 -4.097656 13.265625 -2.875 11.703125 -2.1875 C 11.296875 -2.007812 10.890625 -1.921875 10.484375 -1.921875 C 10.117188 -1.921875 9.773438 -1.988281 9.453125 -2.125 C 8.671875 -2.550781 8.28125 -3.488281 8.28125 -4.9375 C 7.988281 -4.75 7.609375 -4.382812 7.140625 -3.84375 C 6.992188 -3.664062 6.84375 -3.492188 6.6875 -3.328125 C 6.53125 -3.160156 6.378906 -3.003906 6.234375 -2.859375 C 5.703125 -2.347656 5.269531 -2.09375 4.9375 -2.09375 C 4.882812 -2.09375 4.816406 -2.101562 4.734375 -2.125 C 4.660156 -2.144531 4.566406 -2.164062 4.453125 -2.1875 C 4.191406 -2.257812 4.0625 -2.554688 4.0625 -3.078125 C 4.0625 -3.628906 4.378906 -4.648438 5.015625 -6.140625 C 5.398438 -7.078125 5.59375 -7.582031 5.59375 -7.65625 C 5.65625 -7.75 5.6875 -7.847656 5.6875 -7.953125 C 5.6875 -7.992188 5.675781 -8.023438 5.65625 -8.046875 C 5.550781 -8.015625 5.40625 -7.925781 5.21875 -7.78125 L 5.140625 -7.71875 C 3.710938 -6.625 2.472656 -5.332031 1.421875 -3.84375 C 1.328125 -3.707031 1.144531 -3.441406 0.875 -3.046875 C 0.613281 -2.648438 0.269531 -2.117188 -0.15625 -1.453125 C -0.414062 -1.109375 -0.703125 -0.9375 -1.015625 -0.9375 Z M -1.015625 -0.9375 "/></g></g></g><g fill="#000000" fill-opacity="1"><g transform="translate(512.209544, 160.661385)"><g><path d="M 2.015625 -5.703125 C 2.046875 -5.816406 2.070312 -5.929688 2.09375 -6.046875 C 2.113281 -6.160156 2.125 -6.265625 2.125 -6.359375 C 2.101562 -6.453125 2.054688 -6.5 1.984375 -6.5 C 1.867188 -6.5 1.8125 -6.40625 1.8125 -6.21875 C 1.8125 -6.007812 1.878906 -5.835938 2.015625 -5.703125 Z M -0.265625 -2.453125 C -0.171875 -2.453125 -0.0585938 -2.492188 0.0625 -2.578125 C 0.769531 -3.128906 1.316406 -3.914062 1.703125 -4.9375 C 1.503906 -5.082031 1.34375 -5.359375 1.21875 -5.765625 C 1.101562 -5.671875 0.941406 -5.46875 0.734375 -5.15625 C 0.535156 -4.84375 0.289062 -4.425781 0 -3.90625 C -0.289062 -3.351562 -0.4375 -2.960938 -0.4375 -2.734375 C -0.4375 -2.546875 -0.378906 -2.453125 -0.265625 -2.453125 Z M -0.359375 -1.578125 C -0.972656 -1.585938 -1.28125 -1.96875 -1.28125 -2.71875 C -1.28125 -3.394531 -0.992188 -4.242188 -0.421875 -5.265625 C 0.347656 -6.628906 1.125 -7.3125 1.90625 -7.3125 C 2.507812 -7.3125 2.8125 -6.972656 2.8125 -6.296875 C 2.8125 -5.898438 2.734375 -5.539062 2.578125 -5.21875 C 3.066406 -4.988281 3.59375 -4.875 4.15625 -4.875 C 4.394531 -4.875 4.632812 -4.894531 4.875 -4.9375 C 5.414062 -5.039062 5.925781 -5.175781 6.40625 -5.34375 C 6.894531 -5.507812 7.359375 -5.703125 7.796875 -5.921875 C 7.847656 -5.941406 7.890625 -5.953125 7.921875 -5.953125 C 8.035156 -5.953125 8.09375 -5.898438 8.09375 -5.796875 C 8.09375 -5.785156 8.082031 -5.738281 8.0625 -5.65625 C 8.050781 -5.613281 7.582031 -5.398438 6.65625 -5.015625 C 5.632812 -4.609375 4.675781 -4.40625 3.78125 -4.40625 C 3.207031 -4.40625 2.71875 -4.488281 2.3125 -4.65625 C 2.25 -4.507812 2.164062 -4.335938 2.0625 -4.140625 C 1.96875 -3.941406 1.847656 -3.726562 1.703125 -3.5 C 1.410156 -3.007812 1.085938 -2.578125 0.734375 -2.203125 C 0.367188 -1.796875 0.00390625 -1.585938 -0.359375 -1.578125 Z M -0.359375 -1.578125 "/></g></g></g><g fill="#000000" fill-opacity="1"><g transform="translate(520.066439, 160.661385)"><g><path d="M -1.015625 -0.9375 C -1.191406 -0.9375 -1.3125 -0.988281 -1.375 -1.09375 C -1.46875 -1.1875 -1.515625 -1.320312 -1.515625 -1.5 C -1.515625 -1.882812 -1.160156 -2.945312 -0.453125 -4.6875 L 0.125 -6.21875 C 0.3125 -6.632812 0.578125 -7.015625 0.921875 -7.359375 C 1.035156 -7.492188 1.175781 -7.5625 1.34375 -7.5625 C 1.644531 -7.53125 1.796875 -7.375 1.796875 -7.09375 C 1.796875 -6.9375 1.550781 -6.335938 1.0625 -5.296875 C 1.269531 -5.378906 1.421875 -5.507812 1.515625 -5.6875 C 3.203125 -7.5 4.617188 -8.617188 5.765625 -9.046875 C 5.816406 -9.054688 5.863281 -9.0625 5.90625 -9.0625 C 5.957031 -9.070312 6.003906 -9.078125 6.046875 -9.078125 C 6.222656 -9.078125 6.390625 -9.03125 6.546875 -8.9375 C 6.765625 -8.78125 6.875 -8.570312 6.875 -8.3125 L 6.875 -8.28125 C 6.757812 -7.582031 6.5 -6.875 6.09375 -6.15625 C 5.988281 -5.945312 5.863281 -5.671875 5.71875 -5.328125 C 5.582031 -4.984375 5.421875 -4.582031 5.234375 -4.125 C 5.160156 -3.914062 5.101562 -3.742188 5.0625 -3.609375 C 5.03125 -3.472656 5.015625 -3.359375 5.015625 -3.265625 C 5.015625 -3.171875 5.039062 -3.101562 5.09375 -3.0625 C 5.320312 -3.101562 5.523438 -3.207031 5.703125 -3.375 L 7.28125 -5.0625 C 7.46875 -5.257812 7.640625 -5.421875 7.796875 -5.546875 C 7.921875 -5.648438 8.066406 -5.703125 8.234375 -5.703125 C 8.273438 -5.703125 8.328125 -5.691406 8.390625 -5.671875 C 8.460938 -5.660156 8.546875 -5.632812 8.640625 -5.59375 C 8.828125 -5.519531 8.941406 -5.179688 8.984375 -4.578125 C 8.992188 -4.390625 9.015625 -4.207031 9.046875 -4.03125 C 9.078125 -3.851562 9.125 -3.675781 9.1875 -3.5 C 9.289062 -3.15625 9.5 -2.875 9.8125 -2.65625 C 10.0625 -2.539062 10.332031 -2.484375 10.625 -2.484375 C 10.925781 -2.484375 11.34375 -2.578125 11.875 -2.765625 C 12.425781 -2.960938 12.96875 -3.28125 13.5 -3.71875 C 14.082031 -4.195312 14.582031 -4.625 15 -5 C 15.425781 -5.382812 15.757812 -5.703125 16 -5.953125 L 16.015625 -5.984375 C 16.015625 -5.984375 16.019531 -5.976562 16.03125 -5.96875 C 16.039062 -5.957031 16.046875 -5.953125 16.046875 -5.953125 C 16.054688 -5.953125 16.0625 -5.953125 16.0625 -5.953125 C 16.0625 -5.953125 16.066406 -5.953125 16.078125 -5.953125 C 16.085938 -5.941406 16.09375 -5.9375 16.09375 -5.9375 C 16.09375 -5.925781 16.097656 -5.914062 16.109375 -5.90625 C 16.117188 -5.90625 16.125 -5.890625 16.125 -5.859375 C 14.738281 -4.097656 13.265625 -2.875 11.703125 -2.1875 C 11.296875 -2.007812 10.890625 -1.921875 10.484375 -1.921875 C 10.117188 -1.921875 9.773438 -1.988281 9.453125 -2.125 C 8.671875 -2.550781 8.28125 -3.488281 8.28125 -4.9375 C 7.988281 -4.75 7.609375 -4.382812 7.140625 -3.84375 C 6.992188 -3.664062 6.84375 -3.492188 6.6875 -3.328125 C 6.53125 -3.160156 6.378906 -3.003906 6.234375 -2.859375 C 5.703125 -2.347656 5.269531 -2.09375 4.9375 -2.09375 C 4.882812 -2.09375 4.816406 -2.101562 4.734375 -2.125 C 4.660156 -2.144531 4.566406 -2.164062 4.453125 -2.1875 C 4.191406 -2.257812 4.0625 -2.554688 4.0625 -3.078125 C 4.0625 -3.628906 4.378906 -4.648438 5.015625 -6.140625 C 5.398438 -7.078125 5.59375 -7.582031 5.59375 -7.65625 C 5.65625 -7.75 5.6875 -7.847656 5.6875 -7.953125 C 5.6875 -7.992188 5.675781 -8.023438 5.65625 -8.046875 C 5.550781 -8.015625 5.40625 -7.925781 5.21875 -7.78125 L 5.140625 -7.71875 C 3.710938 -6.625 2.472656 -5.332031 1.421875 -3.84375 C 1.328125 -3.707031 1.144531 -3.441406 0.875 -3.046875 C 0.613281 -2.648438 0.269531 -2.117188 -0.15625 -1.453125 C -0.414062 -1.109375 -0.703125 -0.9375 -1.015625 -0.9375 Z M -1.015625 -0.9375 "/></g></g></g><g fill="#000000" fill-opacity="1"><g transform="translate(535.780239, 160.661385)"><g><path d="M 2.515625 -1.78125 L 2.515625 -1.703125 C 2.515625 -1.648438 2.492188 -1.585938 2.453125 -1.515625 C 2.304688 -1.296875 2.144531 -1.101562 1.96875 -0.9375 C 1.789062 -0.78125 1.628906 -0.648438 1.484375 -0.546875 C 1.367188 -0.484375 1.296875 -0.453125 1.265625 -0.453125 C 1.191406 -0.453125 1.082031 -0.5 0.9375 -0.59375 C 0.820312 -0.78125 0.765625 -0.914062 0.765625 -1 C 0.765625 -1.03125 0.765625 -1.054688 0.765625 -1.078125 C 0.773438 -1.109375 0.785156 -1.132812 0.796875 -1.15625 C 0.878906 -1.332031 1.003906 -1.519531 1.171875 -1.71875 C 1.335938 -1.914062 1.5 -2.078125 1.65625 -2.203125 C 1.738281 -2.273438 1.828125 -2.3125 1.921875 -2.3125 C 2.015625 -2.3125 2.113281 -2.273438 2.21875 -2.203125 C 2.28125 -2.160156 2.332031 -2.101562 2.375 -2.03125 C 2.414062 -1.96875 2.460938 -1.882812 2.515625 -1.78125 Z M 2.515625 -1.78125 "/></g></g></g><g fill="#000000" fill-opacity="1"><g transform="translate(403.817764, 160.661385)"><g><path d="M 1.5625 -16.984375 C 1.332031 -16.984375 1.207031 -17.101562 1.1875 -17.34375 L 1.203125 -17.546875 C 1.398438 -18.703125 1.617188 -19.28125 1.859375 -19.28125 C 2.003906 -19.28125 2.078125 -19.234375 2.078125 -19.140625 C 2.078125 -18.890625 2.050781 -18.726562 2 -18.65625 C 2 -18.59375 1.988281 -18.523438 1.96875 -18.453125 C 1.957031 -18.390625 1.941406 -18.328125 1.921875 -18.265625 C 1.910156 -18.191406 1.894531 -18.109375 1.875 -18.015625 C 1.851562 -17.921875 1.832031 -17.820312 1.8125 -17.71875 C 1.90625 -17.800781 1.984375 -17.867188 2.046875 -17.921875 C 2.117188 -17.972656 2.179688 -18.015625 2.234375 -18.046875 C 3.453125 -18.953125 4.109375 -19.40625 4.203125 -19.40625 C 4.296875 -19.40625 4.34375 -19.34375 4.34375 -19.21875 C 4.34375 -19.164062 4.296875 -19.097656 4.203125 -19.015625 C 4.023438 -18.878906 3.765625 -18.664062 3.421875 -18.375 C 3.078125 -18.09375 2.632812 -17.722656 2.09375 -17.265625 C 1.882812 -17.078125 1.707031 -16.984375 1.5625 -16.984375 Z M 1.5625 -16.984375 "/></g></g></g></svg>